<?xml version="1.0" encoding="UTF-8" standalone="no"?>
<!DOCTYPE svg PUBLIC "-//W3C//DTD SVG 1.1//EN"
 "http://www.w3.org/Graphics/SVG/1.1/DTD/svg11.dtd">
<!-- Generated by graphviz version 2.43.0 (0)
 -->
<!-- Title: G Pages: 1 -->
<svg width="1010pt" height="1070pt"
 viewBox="0.00 0.00 1010.00 1070.42" xmlns="http://www.w3.org/2000/svg" xmlns:xlink="http://www.w3.org/1999/xlink">
<g id="graph0" class="graph" transform="scale(1 1) rotate(0) translate(4 1066.42)">
<title>G</title>
<polygon fill="white" stroke="transparent" points="-4,4 -4,-1066.42 1006,-1066.42 1006,4 -4,4"/>
<!-- Insulin_p&#45;6Y&#45;Insulin receptor_SHC1 -->
<g id="node1" class="node">
<title>Insulin_p&#45;6Y&#45;Insulin receptor_SHC1</title>
<ellipse fill="none" stroke="black" cx="260" cy="-1022.53" rx="39.78" ry="39.78"/>
<text text-anchor="middle" x="260" y="-1021.33" font-family="Times,serif" font-size="4.00">Insulin_p&#45;6Y&#45;Insulin receptor_SHC1</text>
</g>
<!-- ADP -->
<g id="node28" class="node">
<title>ADP</title>
<ellipse fill="none" stroke="black" cx="190" cy="-131.82" rx="18" ry="18"/>
<text text-anchor="middle" x="190" y="-130.62" font-family="Times,serif" font-size="4.00">ADP</text>
</g>
<!-- Insulin_p&#45;6Y&#45;Insulin receptor_SHC1&#45;&gt;ADP -->
<g id="edge2" class="edge">
<title>Insulin_p&#45;6Y&#45;Insulin receptor_SHC1&#45;&gt;ADP</title>
<path fill="none" stroke="black" d="M222.75,-1007.79C150.86,-978.59 0,-903.11 0,-783.85 0,-783.85 0,-783.85 0,-351.8 0,-281.25 25.94,-263.4 73,-210.84 99.28,-181.49 138.92,-158.14 164.64,-144.89"/>
<polygon fill="black" stroke="black" points="166.39,-147.93 173.75,-140.31 163.25,-141.67 166.39,-147.93"/>
</g>
<!-- Insulin_p&#45;6Y&#45;Insulin receptor_p&#45;Y427&#45;SHC1 -->
<g id="node38" class="node">
<title>Insulin_p&#45;6Y&#45;Insulin receptor_p&#45;Y427&#45;SHC1</title>
<ellipse fill="none" stroke="black" cx="411" cy="-899.56" rx="47.15" ry="47.15"/>
<text text-anchor="middle" x="411" y="-898.36" font-family="Times,serif" font-size="4.00">Insulin_p&#45;6Y&#45;Insulin receptor_p&#45;Y427&#45;SHC1</text>
</g>
<!-- Insulin_p&#45;6Y&#45;Insulin receptor_SHC1&#45;&gt;Insulin_p&#45;6Y&#45;Insulin receptor_p&#45;Y427&#45;SHC1 -->
<g id="edge1" class="edge">
<title>Insulin_p&#45;6Y&#45;Insulin receptor_SHC1&#45;&gt;Insulin_p&#45;6Y&#45;Insulin receptor_p&#45;Y427&#45;SHC1</title>
<path fill="none" stroke="black" d="M290.92,-996.76C312.7,-979.31 342.2,-955.68 366.51,-936.21"/>
<polygon fill="black" stroke="black" points="368.92,-938.76 374.53,-929.78 364.54,-933.3 368.92,-938.76"/>
</g>
<!-- GRB10 -->
<g id="node2" class="node">
<title>GRB10</title>
<ellipse fill="none" stroke="black" cx="191" cy="-782.85" rx="18" ry="18"/>
<text text-anchor="middle" x="191" y="-781.65" font-family="Times,serif" font-size="4.00">GRB10</text>
</g>
<!-- GRB10_INSR -->
<g id="node27" class="node">
<title>GRB10_INSR</title>
<ellipse fill="none" stroke="black" cx="156" cy="-679.68" rx="20.73" ry="20.73"/>
<text text-anchor="middle" x="156" y="-678.48" font-family="Times,serif" font-size="4.00">GRB10_INSR</text>
</g>
<!-- GRB10&#45;&gt;GRB10_INSR -->
<g id="edge3" class="edge">
<title>GRB10&#45;&gt;GRB10_INSR</title>
<path fill="none" stroke="black" d="M185.38,-765.59C180.13,-750.42 172.18,-727.44 165.87,-709.21"/>
<polygon fill="black" stroke="black" points="169.14,-707.96 162.56,-699.65 162.53,-710.25 169.14,-707.96"/>
</g>
<!-- GRB2&#45;1_p&#45;4S&#45;SOS1_p&#45;Y427&#45;SHC1 -->
<g id="node3" class="node">
<title>GRB2&#45;1_p&#45;4S&#45;SOS1_p&#45;Y427&#45;SHC1</title>
<ellipse fill="none" stroke="black" cx="722" cy="-131.82" rx="39.67" ry="39.67"/>
<text text-anchor="middle" x="722" y="-130.62" font-family="Times,serif" font-size="4.00">GRB2&#45;1_p&#45;4S&#45;SOS1_p&#45;Y427&#45;SHC1</text>
</g>
<!-- p&#45;Y427&#45;SHC1 -->
<g id="node17" class="node">
<title>p&#45;Y427&#45;SHC1</title>
<ellipse fill="none" stroke="black" cx="576" cy="-572.16" rx="20.72" ry="20.72"/>
<text text-anchor="middle" x="576" y="-570.96" font-family="Times,serif" font-size="4.00">p&#45;Y427&#45;SHC1</text>
</g>
<!-- GRB2&#45;1_p&#45;4S&#45;SOS1_p&#45;Y427&#45;SHC1&#45;&gt;p&#45;Y427&#45;SHC1 -->
<g id="edge4" class="edge">
<title>GRB2&#45;1_p&#45;4S&#45;SOS1_p&#45;Y427&#45;SHC1&#45;&gt;p&#45;Y427&#45;SHC1</title>
<path fill="none" stroke="black" d="M720.63,-171.82C718.71,-204.23 714.09,-251.3 703,-290.99 675.57,-389.11 618.49,-496.59 591.19,-544.98"/>
<polygon fill="black" stroke="black" points="588.04,-543.42 586.14,-553.85 594.13,-546.89 588.04,-543.42"/>
</g>
<!-- GRB2&#45;1_p&#45;4S&#45;SOS1 -->
<g id="node23" class="node">
<title>GRB2&#45;1_p&#45;4S&#45;SOS1</title>
<ellipse fill="none" stroke="black" cx="654" cy="-26.4" rx="26.3" ry="26.3"/>
<text text-anchor="middle" x="654" y="-25.2" font-family="Times,serif" font-size="4.00">GRB2&#45;1_p&#45;4S&#45;SOS1</text>
</g>
<!-- GRB2&#45;1_p&#45;4S&#45;SOS1_p&#45;Y427&#45;SHC1&#45;&gt;GRB2&#45;1_p&#45;4S&#45;SOS1 -->
<g id="edge5" class="edge">
<title>GRB2&#45;1_p&#45;4S&#45;SOS1_p&#45;Y427&#45;SHC1&#45;&gt;GRB2&#45;1_p&#45;4S&#45;SOS1</title>
<path fill="none" stroke="black" d="M700.48,-98.1C691.89,-85.02 682.05,-70.06 673.65,-57.28"/>
<polygon fill="black" stroke="black" points="676.51,-55.26 668.09,-48.83 670.66,-59.11 676.51,-55.26"/>
</g>
<!-- p&#45;6Y&#45;insulin receptor -->
<g id="node4" class="node">
<title>p&#45;6Y&#45;insulin receptor</title>
<ellipse fill="none" stroke="black" cx="310" cy="-572.16" rx="26.64" ry="26.64"/>
<text text-anchor="middle" x="310" y="-570.96" font-family="Times,serif" font-size="4.00">p&#45;6Y&#45;insulin receptor</text>
</g>
<!-- Pi -->
<g id="node10" class="node">
<title>Pi</title>
<ellipse fill="none" stroke="black" cx="353" cy="-250.92" rx="18" ry="18"/>
<text text-anchor="middle" x="353" y="-249.72" font-family="Times,serif" font-size="4.00">Pi</text>
</g>
<!-- p&#45;6Y&#45;insulin receptor&#45;&gt;Pi -->
<g id="edge6" class="edge">
<title>p&#45;6Y&#45;insulin receptor&#45;&gt;Pi</title>
<path fill="none" stroke="black" d="M313.45,-545.57C321.44,-486.25 341.17,-339.77 349.35,-279"/>
<polygon fill="black" stroke="black" points="352.83,-279.4 350.7,-269.02 345.89,-278.47 352.83,-279.4"/>
</g>
<!-- insulin receptor -->
<g id="node19" class="node">
<title>insulin receptor</title>
<ellipse fill="none" stroke="black" cx="256" cy="-456.38" rx="21.98" ry="21.98"/>
<text text-anchor="middle" x="256" y="-455.18" font-family="Times,serif" font-size="4.00">insulin receptor</text>
</g>
<!-- p&#45;6Y&#45;insulin receptor&#45;&gt;insulin receptor -->
<g id="edge7" class="edge">
<title>p&#45;6Y&#45;insulin receptor&#45;&gt;insulin receptor</title>
<path fill="none" stroke="black" d="M298.94,-547.86C290.39,-529.84 278.51,-504.81 269.42,-485.65"/>
<polygon fill="black" stroke="black" points="272.52,-484.03 265.07,-476.5 266.2,-487.03 272.52,-484.03"/>
</g>
<!-- GTP -->
<g id="node5" class="node">
<title>GTP</title>
<ellipse fill="none" stroke="black" cx="956" cy="-250.92" rx="18" ry="18"/>
<text text-anchor="middle" x="956" y="-249.72" font-family="Times,serif" font-size="4.00">GTP</text>
</g>
<!-- p21 RAS_GTP -->
<g id="node33" class="node">
<title>p21 RAS_GTP</title>
<ellipse fill="none" stroke="black" cx="821" cy="-131.82" rx="21.29" ry="21.29"/>
<text text-anchor="middle" x="821" y="-130.62" font-family="Times,serif" font-size="4.00">p21 RAS_GTP</text>
</g>
<!-- GTP&#45;&gt;p21 RAS_GTP -->
<g id="edge8" class="edge">
<title>GTP&#45;&gt;p21 RAS_GTP</title>
<path fill="none" stroke="black" d="M947.73,-234.5C943,-226.71 936.52,-217.53 929,-210.84 903.44,-188.13 888.25,-195.5 861,-174.84 854.11,-169.62 847.35,-163.19 841.4,-156.93"/>
<polygon fill="black" stroke="black" points="843.68,-154.24 834.36,-149.21 838.51,-158.95 843.68,-154.24"/>
</g>
<!-- GDP -->
<g id="node40" class="node">
<title>GDP</title>
<ellipse fill="none" stroke="black" cx="888" cy="-131.82" rx="18" ry="18"/>
<text text-anchor="middle" x="888" y="-130.62" font-family="Times,serif" font-size="4.00">GDP</text>
</g>
<!-- GTP&#45;&gt;GDP -->
<g id="edge9" class="edge">
<title>GTP&#45;&gt;GDP</title>
<path fill="none" stroke="black" d="M947.39,-235.09C935.9,-215.31 915.44,-180.08 901.79,-156.58"/>
<polygon fill="black" stroke="black" points="904.81,-154.79 896.76,-147.9 898.75,-158.31 904.81,-154.79"/>
</g>
<!-- Insulin receptor -->
<g id="node6" class="node">
<title>Insulin receptor</title>
<ellipse fill="none" stroke="black" cx="218" cy="-352.8" rx="21.71" ry="21.71"/>
<text text-anchor="middle" x="218" y="-351.6" font-family="Times,serif" font-size="4.00">Insulin receptor</text>
</g>
<!-- Insulin_Insulin receptor -->
<g id="node34" class="node">
<title>Insulin_Insulin receptor</title>
<ellipse fill="none" stroke="black" cx="133" cy="-250.92" rx="28.62" ry="28.62"/>
<text text-anchor="middle" x="133" y="-249.72" font-family="Times,serif" font-size="4.00">Insulin_Insulin receptor</text>
</g>
<!-- Insulin receptor&#45;&gt;Insulin_Insulin receptor -->
<g id="edge10" class="edge">
<title>Insulin receptor&#45;&gt;Insulin_Insulin receptor</title>
<path fill="none" stroke="black" d="M203.96,-335.31C191.45,-320.6 172.85,-298.74 157.83,-281.09"/>
<polygon fill="black" stroke="black" points="160.36,-278.66 151.21,-273.32 155.03,-283.2 160.36,-278.66"/>
</g>
<!-- p&#45;Y&#45;IRS1_p&#45;Y&#45;IRS2_PI3K -->
<g id="node7" class="node">
<title>p&#45;Y&#45;IRS1_p&#45;Y&#45;IRS2_PI3K</title>
<ellipse fill="none" stroke="black" cx="527" cy="-250.92" rx="31.2" ry="31.2"/>
<text text-anchor="middle" x="527" y="-249.72" font-family="Times,serif" font-size="4.00">p&#45;Y&#45;IRS1_p&#45;Y&#45;IRS2_PI3K</text>
</g>
<!-- GRB2&#45;1_SOS1_p&#45;Y&#45;IRS1_p&#45;Y&#45;IRS2 -->
<g id="node8" class="node">
<title>GRB2&#45;1_SOS1_p&#45;Y&#45;IRS1_p&#45;Y&#45;IRS2</title>
<ellipse fill="none" stroke="black" cx="654" cy="-250.92" rx="40.15" ry="40.15"/>
<text text-anchor="middle" x="654" y="-249.72" font-family="Times,serif" font-size="4.00">GRB2&#45;1_SOS1_p&#45;Y&#45;IRS1_p&#45;Y&#45;IRS2</text>
</g>
<!-- GRB2_p&#45;4S&#45;SOS1_p&#45;Y&#45;IRS1_p&#45;Y&#45;IRS2 -->
<g id="node22" class="node">
<title>GRB2_p&#45;4S&#45;SOS1_p&#45;Y&#45;IRS1_p&#45;Y&#45;IRS2</title>
<ellipse fill="none" stroke="black" cx="586" cy="-131.82" rx="43.04" ry="43.04"/>
<text text-anchor="middle" x="586" y="-130.62" font-family="Times,serif" font-size="4.00">GRB2_p&#45;4S&#45;SOS1_p&#45;Y&#45;IRS1_p&#45;Y&#45;IRS2</text>
</g>
<!-- GRB2&#45;1_SOS1_p&#45;Y&#45;IRS1_p&#45;Y&#45;IRS2&#45;&gt;GRB2_p&#45;4S&#45;SOS1_p&#45;Y&#45;IRS1_p&#45;Y&#45;IRS2 -->
<g id="edge11" class="edge">
<title>GRB2&#45;1_SOS1_p&#45;Y&#45;IRS1_p&#45;Y&#45;IRS2&#45;&gt;GRB2_p&#45;4S&#45;SOS1_p&#45;Y&#45;IRS1_p&#45;Y&#45;IRS2</title>
<path fill="none" stroke="black" d="M634.15,-215.73C627.34,-204 619.6,-190.68 612.35,-178.2"/>
<polygon fill="black" stroke="black" points="615.23,-176.19 607.18,-169.3 609.18,-179.7 615.23,-176.19"/>
</g>
<!-- GRB2&#45;1_SOS1_p&#45;Y&#45;IRS1_p&#45;Y&#45;IRS2&#45;&gt;ADP -->
<g id="edge12" class="edge">
<title>GRB2&#45;1_SOS1_p&#45;Y&#45;IRS1_p&#45;Y&#45;IRS2&#45;&gt;ADP</title>
<path fill="none" stroke="black" d="M618.29,-231.76C602.83,-224.46 584.33,-216.45 567,-210.84 439.86,-169.68 281.36,-145.23 218.03,-136.49"/>
<polygon fill="black" stroke="black" points="218.4,-133.01 208.02,-135.13 217.46,-139.94 218.4,-133.01"/>
</g>
<!-- GRB2&#45;1_SOS1_p&#45;Y&#45;IRS1_p&#45;Y&#45;IRS2&#45;&gt;p21 RAS_GTP -->
<g id="edge13" class="edge">
<title>GRB2&#45;1_SOS1_p&#45;Y&#45;IRS1_p&#45;Y&#45;IRS2&#45;&gt;p21 RAS_GTP</title>
<path fill="none" stroke="black" d="M688.05,-229.67C711.81,-215.16 743.99,-194.73 771,-174.84 779.9,-168.29 789.28,-160.63 797.47,-153.66"/>
<polygon fill="black" stroke="black" points="799.92,-156.17 805.21,-146.99 795.35,-150.87 799.92,-156.17"/>
</g>
<!-- GRB2&#45;1_SOS1_p&#45;Y&#45;IRS1_p&#45;Y&#45;IRS2&#45;&gt;GDP -->
<g id="edge14" class="edge">
<title>GRB2&#45;1_SOS1_p&#45;Y&#45;IRS1_p&#45;Y&#45;IRS2&#45;&gt;GDP</title>
<path fill="none" stroke="black" d="M690.04,-232.7C705.56,-225.55 724.01,-217.42 741,-210.84 788.97,-192.28 808.04,-203.14 851,-174.84 858.82,-169.69 865.99,-162.47 871.9,-155.46"/>
<polygon fill="black" stroke="black" points="874.76,-157.49 878.21,-147.47 869.26,-153.15 874.76,-157.49"/>
</g>
<!-- Insulin_p&#45;6Y&#45;Insulin receptor -->
<g id="node9" class="node">
<title>Insulin_p&#45;6Y&#45;Insulin receptor</title>
<ellipse fill="none" stroke="black" cx="280" cy="-782.85" rx="33.78" ry="33.78"/>
<text text-anchor="middle" x="280" y="-781.65" font-family="Times,serif" font-size="4.00">Insulin_p&#45;6Y&#45;Insulin receptor</text>
</g>
<!-- Insulin_p&#45;6Y&#45;Insulin receptor&#45;&gt;Insulin_p&#45;6Y&#45;Insulin receptor_SHC1 -->
<g id="edge16" class="edge">
<title>Insulin_p&#45;6Y&#45;Insulin receptor&#45;&gt;Insulin_p&#45;6Y&#45;Insulin receptor_SHC1</title>
<path fill="none" stroke="black" d="M277.23,-816.72C273.84,-857.04 268.06,-925.76 264.14,-972.37"/>
<polygon fill="black" stroke="black" points="260.63,-972.29 263.28,-982.55 267.61,-972.88 260.63,-972.29"/>
</g>
<!-- IRS_Insulin_p&#45;6Y&#45;Insulin receptor -->
<g id="node25" class="node">
<title>IRS_Insulin_p&#45;6Y&#45;Insulin receptor</title>
<ellipse fill="none" stroke="black" cx="173" cy="-572.16" rx="38.01" ry="38.01"/>
<text text-anchor="middle" x="173" y="-570.96" font-family="Times,serif" font-size="4.00">IRS_Insulin_p&#45;6Y&#45;Insulin receptor</text>
</g>
<!-- Insulin_p&#45;6Y&#45;Insulin receptor&#45;&gt;IRS_Insulin_p&#45;6Y&#45;Insulin receptor -->
<g id="edge15" class="edge">
<title>Insulin_p&#45;6Y&#45;Insulin receptor&#45;&gt;IRS_Insulin_p&#45;6Y&#45;Insulin receptor</title>
<path fill="none" stroke="black" d="M267.73,-751.36C256.18,-723.47 237.86,-681.32 219,-646.16 213.08,-635.12 206.12,-623.51 199.43,-612.88"/>
<polygon fill="black" stroke="black" points="202.23,-610.76 193.91,-604.21 196.33,-614.52 202.23,-610.76"/>
</g>
<!-- Insulin_p&#45;6Y&#45;Insulin receptor&#45;&gt;GRB10_INSR -->
<g id="edge17" class="edge">
<title>Insulin_p&#45;6Y&#45;Insulin receptor&#45;&gt;GRB10_INSR</title>
<path fill="none" stroke="black" d="M253.01,-762.05C235.1,-748.66 211.25,-730.36 191,-713.21 186.83,-709.68 182.5,-705.81 178.35,-702.02"/>
<polygon fill="black" stroke="black" points="180.42,-699.17 170.71,-694.92 175.66,-704.29 180.42,-699.17"/>
</g>
<!-- Insulin_p&#45;6Y&#45;insulin receptor -->
<g id="node37" class="node">
<title>Insulin_p&#45;6Y&#45;insulin receptor</title>
<ellipse fill="none" stroke="black" cx="305" cy="-679.68" rx="33.55" ry="33.55"/>
<text text-anchor="middle" x="305" y="-678.48" font-family="Times,serif" font-size="4.00">Insulin_p&#45;6Y&#45;insulin receptor</text>
</g>
<!-- Insulin_p&#45;6Y&#45;Insulin receptor&#45;&gt;Insulin_p&#45;6Y&#45;insulin receptor -->
<g id="edge18" class="edge">
<title>Insulin_p&#45;6Y&#45;Insulin receptor&#45;&gt;Insulin_p&#45;6Y&#45;insulin receptor</title>
<path fill="none" stroke="black" d="M287.84,-750.12C290.03,-741.27 292.44,-731.52 294.74,-722.19"/>
<polygon fill="black" stroke="black" points="298.18,-722.85 297.19,-712.3 291.39,-721.17 298.18,-722.85"/>
</g>
<!-- MAPK3_(MAPK1) -->
<g id="node11" class="node">
<title>MAPK3_(MAPK1)</title>
<ellipse fill="none" stroke="black" cx="452" cy="-250.92" rx="25.18" ry="25.18"/>
<text text-anchor="middle" x="452" y="-249.72" font-family="Times,serif" font-size="4.00">MAPK3_(MAPK1)</text>
</g>
<!-- MAPK3_(MAPK1)&#45;&gt;GRB2&#45;1_p&#45;4S&#45;SOS1_p&#45;Y427&#45;SHC1 -->
<g id="edge21" class="edge">
<title>MAPK3_(MAPK1)&#45;&gt;GRB2&#45;1_p&#45;4S&#45;SOS1_p&#45;Y427&#45;SHC1</title>
<path fill="none" stroke="black" d="M466.09,-229.67C471.84,-222.76 479.02,-215.6 487,-210.84 546.27,-175.54 573.17,-198.43 638,-174.84 651.56,-169.91 665.79,-163.36 678.6,-156.91"/>
<polygon fill="black" stroke="black" points="680.36,-159.94 687.65,-152.25 677.15,-153.72 680.36,-159.94"/>
</g>
<!-- MAPK3_(MAPK1)&#45;&gt;GRB2_p&#45;4S&#45;SOS1_p&#45;Y&#45;IRS1_p&#45;Y&#45;IRS2 -->
<g id="edge19" class="edge">
<title>MAPK3_(MAPK1)&#45;&gt;GRB2_p&#45;4S&#45;SOS1_p&#45;Y&#45;IRS1_p&#45;Y&#45;IRS2</title>
<path fill="none" stroke="black" d="M467.75,-231.02C473.57,-224.4 480.36,-217.08 487,-210.84 504.57,-194.35 525.35,-177.6 543.32,-163.88"/>
<polygon fill="black" stroke="black" points="545.49,-166.62 551.35,-157.8 541.27,-161.04 545.49,-166.62"/>
</g>
<!-- MAPK3_(MAPK1)&#45;&gt;ADP -->
<g id="edge20" class="edge">
<title>MAPK3_(MAPK1)&#45;&gt;ADP</title>
<path fill="none" stroke="black" d="M430.26,-237.32C416.13,-229.34 397.21,-219.02 380,-210.84 322.73,-183.64 253.37,-156.59 216.33,-142.6"/>
<polygon fill="black" stroke="black" points="217.37,-139.26 206.78,-139.02 214.91,-145.81 217.37,-139.26"/>
</g>
<!-- GRB2&#45;1_SOS1_p&#45;Y427&#45;SHC1 -->
<g id="node12" class="node">
<title>GRB2&#45;1_SOS1_p&#45;Y427&#45;SHC1</title>
<ellipse fill="none" stroke="black" cx="785" cy="-250.92" rx="35.25" ry="35.25"/>
<text text-anchor="middle" x="785" y="-249.72" font-family="Times,serif" font-size="4.00">GRB2&#45;1_SOS1_p&#45;Y427&#45;SHC1</text>
</g>
<!-- GRB2&#45;1_SOS1_p&#45;Y427&#45;SHC1&#45;&gt;GRB2&#45;1_p&#45;4S&#45;SOS1_p&#45;Y427&#45;SHC1 -->
<g id="edge24" class="edge">
<title>GRB2&#45;1_SOS1_p&#45;Y427&#45;SHC1&#45;&gt;GRB2&#45;1_p&#45;4S&#45;SOS1_p&#45;Y427&#45;SHC1</title>
<path fill="none" stroke="black" d="M768.78,-219.76C761.65,-206.52 753.15,-190.72 745.36,-176.24"/>
<polygon fill="black" stroke="black" points="748.44,-174.58 740.62,-167.44 742.28,-177.9 748.44,-174.58"/>
</g>
<!-- GRB2&#45;1_SOS1_p&#45;Y427&#45;SHC1&#45;&gt;ADP -->
<g id="edge25" class="edge">
<title>GRB2&#45;1_SOS1_p&#45;Y427&#45;SHC1&#45;&gt;ADP</title>
<path fill="none" stroke="black" d="M754.71,-232.85C739.6,-225.03 720.79,-216.3 703,-210.84 610.32,-182.4 310.87,-146.63 217.84,-135.96"/>
<polygon fill="black" stroke="black" points="218.12,-132.47 207.79,-134.82 217.32,-139.43 218.12,-132.47"/>
</g>
<!-- GRB2&#45;1_SOS1_p&#45;Y427&#45;SHC1&#45;&gt;p21 RAS_GTP -->
<g id="edge22" class="edge">
<title>GRB2&#45;1_SOS1_p&#45;Y427&#45;SHC1&#45;&gt;p21 RAS_GTP</title>
<path fill="none" stroke="black" d="M795.12,-216.99C800.39,-199.85 806.79,-179.06 811.9,-162.43"/>
<polygon fill="black" stroke="black" points="815.3,-163.27 814.89,-152.68 808.61,-161.21 815.3,-163.27"/>
</g>
<!-- GRB2&#45;1_SOS1_p&#45;Y427&#45;SHC1&#45;&gt;GDP -->
<g id="edge23" class="edge">
<title>GRB2&#45;1_SOS1_p&#45;Y427&#45;SHC1&#45;&gt;GDP</title>
<path fill="none" stroke="black" d="M807.86,-223.93C826.42,-202.82 852.27,-173.44 869.54,-153.81"/>
<polygon fill="black" stroke="black" points="872.39,-155.87 876.37,-146.05 867.14,-151.24 872.39,-155.87"/>
</g>
<!-- GRB2&#45;1_SOS1 -->
<g id="node13" class="node">
<title>GRB2&#45;1_SOS1</title>
<ellipse fill="none" stroke="black" cx="725" cy="-352.8" rx="21.88" ry="21.88"/>
<text text-anchor="middle" x="725" y="-351.6" font-family="Times,serif" font-size="4.00">GRB2&#45;1_SOS1</text>
</g>
<!-- GRB2&#45;1_SOS1&#45;&gt;GRB2&#45;1_SOS1_p&#45;Y&#45;IRS1_p&#45;Y&#45;IRS2 -->
<g id="edge26" class="edge">
<title>GRB2&#45;1_SOS1&#45;&gt;GRB2&#45;1_SOS1_p&#45;Y&#45;IRS1_p&#45;Y&#45;IRS2</title>
<path fill="none" stroke="black" d="M712.63,-334.4C704.4,-322.81 693.22,-307.09 682.83,-292.47"/>
<polygon fill="black" stroke="black" points="685.48,-290.16 676.83,-284.04 679.77,-294.21 685.48,-290.16"/>
</g>
<!-- GRB2&#45;1_SOS1&#45;&gt;GRB2&#45;1_SOS1_p&#45;Y427&#45;SHC1 -->
<g id="edge27" class="edge">
<title>GRB2&#45;1_SOS1&#45;&gt;GRB2&#45;1_SOS1_p&#45;Y427&#45;SHC1</title>
<path fill="none" stroke="black" d="M735.73,-333.94C743.05,-321.75 753.04,-305.12 762.1,-290.03"/>
<polygon fill="black" stroke="black" points="765.16,-291.74 767.31,-281.37 759.16,-288.14 765.16,-291.74"/>
</g>
<!-- V&#45;ATPase -->
<g id="node14" class="node">
<title>V&#45;ATPase</title>
<ellipse fill="none" stroke="black" cx="876" cy="-1022.53" rx="18" ry="18"/>
<text text-anchor="middle" x="876" y="-1021.33" font-family="Times,serif" font-size="4.00">V&#45;ATPase</text>
</g>
<!-- V&#45;ATPase_ATP6AP1 -->
<g id="node41" class="node">
<title>V&#45;ATPase_ATP6AP1</title>
<ellipse fill="none" stroke="black" cx="903" cy="-899.56" rx="26.85" ry="26.85"/>
<text text-anchor="middle" x="903" y="-898.36" font-family="Times,serif" font-size="4.00">V&#45;ATPase_ATP6AP1</text>
</g>
<!-- V&#45;ATPase&#45;&gt;V&#45;ATPase_ATP6AP1 -->
<g id="edge28" class="edge">
<title>V&#45;ATPase&#45;&gt;V&#45;ATPase_ATP6AP1</title>
<path fill="none" stroke="black" d="M879.75,-1004.71C883.72,-986.92 890.1,-958.34 895.18,-935.62"/>
<polygon fill="black" stroke="black" points="898.64,-936.17 897.4,-925.65 891.81,-934.64 898.64,-936.17"/>
</g>
<!-- IRS1_IRS2 -->
<g id="node15" class="node">
<title>IRS1_IRS2</title>
<ellipse fill="none" stroke="black" cx="299" cy="-250.92" rx="18.04" ry="18.04"/>
<text text-anchor="middle" x="299" y="-249.72" font-family="Times,serif" font-size="4.00">IRS1_IRS2</text>
</g>
<!-- IRS1_IRS2&#45;&gt;IRS_Insulin_p&#45;6Y&#45;Insulin receptor -->
<g id="edge29" class="edge">
<title>IRS1_IRS2&#45;&gt;IRS_Insulin_p&#45;6Y&#45;Insulin receptor</title>
<path fill="none" stroke="black" d="M293.61,-268.81C285.43,-293.58 268.73,-340.89 249,-378.61 240.09,-395.65 233.44,-397.33 225,-414.61 207.59,-450.25 193.8,-493.15 184.8,-525.02"/>
<polygon fill="black" stroke="black" points="181.35,-524.39 182.05,-534.96 188.09,-526.26 181.35,-524.39"/>
</g>
<!-- p&#45;Y&#45;IRS_Insulin_p&#45;6Y&#45;Insulin receptor -->
<g id="node16" class="node">
<title>p&#45;Y&#45;IRS_Insulin_p&#45;6Y&#45;Insulin receptor</title>
<ellipse fill="none" stroke="black" cx="452" cy="-456.38" rx="41.55" ry="41.55"/>
<text text-anchor="middle" x="452" y="-455.18" font-family="Times,serif" font-size="4.00">p&#45;Y&#45;IRS_Insulin_p&#45;6Y&#45;Insulin receptor</text>
</g>
<!-- p&#45;Y&#45;IRS_Insulin_p&#45;6Y&#45;Insulin receptor&#45;&gt;Insulin_p&#45;6Y&#45;Insulin receptor -->
<g id="edge31" class="edge">
<title>p&#45;Y&#45;IRS_Insulin_p&#45;6Y&#45;Insulin receptor&#45;&gt;Insulin_p&#45;6Y&#45;Insulin receptor</title>
<path fill="none" stroke="black" d="M451.49,-498.18C449.79,-529.88 444.48,-574.33 429,-610.16 403.24,-669.78 349.04,-723.69 313.59,-754.6"/>
<polygon fill="black" stroke="black" points="311.2,-752.04 305.9,-761.21 315.76,-757.35 311.2,-752.04"/>
</g>
<!-- p&#45;Y&#45;IRS1_p&#45;Y&#45;IRS2 -->
<g id="node26" class="node">
<title>p&#45;Y&#45;IRS1_p&#45;Y&#45;IRS2</title>
<ellipse fill="none" stroke="black" cx="490" cy="-352.8" rx="25.62" ry="25.62"/>
<text text-anchor="middle" x="490" y="-351.6" font-family="Times,serif" font-size="4.00">p&#45;Y&#45;IRS1_p&#45;Y&#45;IRS2</text>
</g>
<!-- p&#45;Y&#45;IRS_Insulin_p&#45;6Y&#45;Insulin receptor&#45;&gt;p&#45;Y&#45;IRS1_p&#45;Y&#45;IRS2 -->
<g id="edge30" class="edge">
<title>p&#45;Y&#45;IRS_Insulin_p&#45;6Y&#45;Insulin receptor&#45;&gt;p&#45;Y&#45;IRS1_p&#45;Y&#45;IRS2</title>
<path fill="none" stroke="black" d="M466.37,-416.98C470.08,-407.05 474.04,-396.46 477.64,-386.83"/>
<polygon fill="black" stroke="black" points="481.01,-387.82 481.24,-377.23 474.45,-385.37 481.01,-387.82"/>
</g>
<!-- p&#45;Y427&#45;SHC1&#45;&gt;Pi -->
<g id="edge33" class="edge">
<title>p&#45;Y427&#45;SHC1&#45;&gt;Pi</title>
<path fill="none" stroke="black" d="M579.62,-551.61C584.43,-519.32 588.95,-454.44 557,-414.61 526.92,-377.11 494.23,-406.39 455,-378.61 415.87,-350.9 383.77,-304.21 366.59,-275.91"/>
<polygon fill="black" stroke="black" points="369.46,-273.89 361.35,-267.07 363.44,-277.46 369.46,-273.89"/>
</g>
<!-- p&#45;Y427&#45;SHC1&#45;&gt;GRB2&#45;1_SOS1_p&#45;Y427&#45;SHC1 -->
<g id="edge34" class="edge">
<title>p&#45;Y427&#45;SHC1&#45;&gt;GRB2&#45;1_SOS1_p&#45;Y427&#45;SHC1</title>
<path fill="none" stroke="black" d="M596.82,-570.83C639.38,-568.91 735.94,-557.84 779,-498.15 822.13,-438.37 809.89,-347.44 797.3,-294.43"/>
<polygon fill="black" stroke="black" points="800.68,-293.53 794.88,-284.67 793.89,-295.21 800.68,-293.53"/>
</g>
<!-- SHC1 -->
<g id="node35" class="node">
<title>SHC1</title>
<ellipse fill="none" stroke="black" cx="530" cy="-456.38" rx="18" ry="18"/>
<text text-anchor="middle" x="530" y="-455.18" font-family="Times,serif" font-size="4.00">SHC1</text>
</g>
<!-- p&#45;Y427&#45;SHC1&#45;&gt;SHC1 -->
<g id="edge32" class="edge">
<title>p&#45;Y427&#45;SHC1&#45;&gt;SHC1</title>
<path fill="none" stroke="black" d="M568.51,-552.62C560.81,-533.6 548.79,-503.86 540.23,-482.68"/>
<polygon fill="black" stroke="black" points="543.44,-481.29 536.45,-473.33 536.95,-483.92 543.44,-481.29"/>
</g>
<!-- insulin -->
<g id="node18" class="node">
<title>insulin</title>
<ellipse fill="none" stroke="black" cx="247" cy="-572.16" rx="18" ry="18"/>
<text text-anchor="middle" x="247" y="-570.96" font-family="Times,serif" font-size="4.00">insulin</text>
</g>
<!-- insulin receptor&#45;&gt;Insulin receptor -->
<g id="edge35" class="edge">
<title>insulin receptor&#45;&gt;Insulin receptor</title>
<path fill="none" stroke="black" d="M248.67,-435.8C243.08,-420.86 235.3,-400.03 228.96,-383.11"/>
<polygon fill="black" stroke="black" points="232.22,-381.81 225.43,-373.67 225.66,-384.26 232.22,-381.81"/>
</g>
<!-- ATP -->
<g id="node20" class="node">
<title>ATP</title>
<ellipse fill="none" stroke="black" cx="449" cy="-1022.53" rx="18" ry="18"/>
<text text-anchor="middle" x="449" y="-1021.33" font-family="Times,serif" font-size="4.00">ATP</text>
</g>
<!-- ATP&#45;&gt;GRB2&#45;1_p&#45;4S&#45;SOS1_p&#45;Y427&#45;SHC1 -->
<g id="edge38" class="edge">
<title>ATP&#45;&gt;GRB2&#45;1_p&#45;4S&#45;SOS1_p&#45;Y427&#45;SHC1</title>
<path fill="none" stroke="black" d="M466.92,-1019.69C544.56,-1010.66 848,-963.85 848,-783.85 848,-783.85 848,-783.85 848,-351.8 848,-288.59 861.36,-265.15 829,-210.84 820.91,-197.27 790.66,-175.78 764.38,-158.78"/>
<polygon fill="black" stroke="black" points="765.96,-155.65 755.65,-153.21 762.2,-161.55 765.96,-155.65"/>
</g>
<!-- ATP&#45;&gt;Insulin_p&#45;6Y&#45;Insulin receptor -->
<g id="edge41" class="edge">
<title>ATP&#45;&gt;Insulin_p&#45;6Y&#45;Insulin receptor</title>
<path fill="none" stroke="black" d="M433.84,-1012.63C413.59,-1000.1 377.66,-975.54 355,-946.64 326.08,-909.75 305.23,-859.91 292.96,-825.13"/>
<polygon fill="black" stroke="black" points="296.14,-823.62 289.58,-815.3 289.52,-825.9 296.14,-823.62"/>
</g>
<!-- ATP&#45;&gt;p&#45;Y&#45;IRS_Insulin_p&#45;6Y&#45;Insulin receptor -->
<g id="edge40" class="edge">
<title>ATP&#45;&gt;p&#45;Y&#45;IRS_Insulin_p&#45;6Y&#45;Insulin receptor</title>
<path fill="none" stroke="black" d="M453.58,-1004.99C457.61,-989.9 463.39,-966.92 467,-946.64 479.76,-874.92 486,-856.69 486,-783.85 486,-783.85 486,-783.85 486,-678.68 486,-619.18 473.84,-551.71 464.07,-507.08"/>
<polygon fill="black" stroke="black" points="467.43,-506.08 461.83,-497.08 460.6,-507.6 467.43,-506.08"/>
</g>
<!-- ATP&#45;&gt;GRB2_p&#45;4S&#45;SOS1_p&#45;Y&#45;IRS1_p&#45;Y&#45;IRS2 -->
<g id="edge36" class="edge">
<title>ATP&#45;&gt;GRB2_p&#45;4S&#45;SOS1_p&#45;Y&#45;IRS1_p&#45;Y&#45;IRS2</title>
<path fill="none" stroke="black" d="M464.59,-1013.26C512.13,-986.81 652,-899.16 652,-783.85 652,-783.85 652,-783.85 652,-455.38 652,-379.39 620.02,-365.48 605,-290.99 597.93,-255.91 593.15,-215.9 590.15,-184.89"/>
<polygon fill="black" stroke="black" points="593.62,-184.37 589.21,-174.74 586.65,-185.02 593.62,-184.37"/>
</g>
<!-- ATP&#45;&gt;ADP -->
<g id="edge37" class="edge">
<title>ATP&#45;&gt;ADP</title>
<path fill="none" stroke="black" d="M432.46,-1015.13C403.98,-1003.7 344.47,-978.03 300,-946.64 194.28,-872.03 148.69,-840.6 126,-713.21 92.91,-527.42 142.56,-477.55 171,-290.99 177.97,-245.25 183.94,-191.76 187.25,-160.17"/>
<polygon fill="black" stroke="black" points="190.76,-160.26 188.3,-149.96 183.79,-159.54 190.76,-160.26"/>
</g>
<!-- ATP&#45;&gt;Insulin_p&#45;6Y&#45;Insulin receptor_p&#45;Y427&#45;SHC1 -->
<g id="edge39" class="edge">
<title>ATP&#45;&gt;Insulin_p&#45;6Y&#45;Insulin receptor_p&#45;Y427&#45;SHC1</title>
<path fill="none" stroke="black" d="M443.88,-1005.22C439.73,-992.04 433.66,-972.7 427.86,-954.23"/>
<polygon fill="black" stroke="black" points="431.2,-953.18 424.86,-944.69 424.52,-955.27 431.2,-953.18"/>
</g>
<!-- p21 RAS_GDP -->
<g id="node21" class="node">
<title>p21 RAS_GDP</title>
<ellipse fill="none" stroke="black" cx="898" cy="-250.92" rx="21.76" ry="21.76"/>
<text text-anchor="middle" x="898" y="-249.72" font-family="Times,serif" font-size="4.00">p21 RAS_GDP</text>
</g>
<!-- p21 RAS_GDP&#45;&gt;p21 RAS_GTP -->
<g id="edge42" class="edge">
<title>p21 RAS_GDP&#45;&gt;p21 RAS_GTP</title>
<path fill="none" stroke="black" d="M886.47,-232.39C873.58,-212.79 852.59,-180.86 837.86,-158.46"/>
<polygon fill="black" stroke="black" points="840.77,-156.52 832.36,-150.09 834.93,-160.37 840.77,-156.52"/>
</g>
<!-- p21 RAS_GDP&#45;&gt;GDP -->
<g id="edge43" class="edge">
<title>p21 RAS_GDP&#45;&gt;GDP</title>
<path fill="none" stroke="black" d="M896.24,-229.25C894.59,-210.02 892.13,-181.23 890.33,-160.11"/>
<polygon fill="black" stroke="black" points="893.79,-159.53 889.46,-149.86 886.82,-160.12 893.79,-159.53"/>
</g>
<!-- GRB2_p&#45;4S&#45;SOS1_p&#45;Y&#45;IRS1_p&#45;Y&#45;IRS2&#45;&gt;GRB2&#45;1_p&#45;4S&#45;SOS1 -->
<g id="edge45" class="edge">
<title>GRB2_p&#45;4S&#45;SOS1_p&#45;Y&#45;IRS1_p&#45;Y&#45;IRS2&#45;&gt;GRB2&#45;1_p&#45;4S&#45;SOS1</title>
<path fill="none" stroke="black" d="M609.21,-95.52C617.31,-83.21 626.31,-69.52 634.11,-57.65"/>
<polygon fill="black" stroke="black" points="637.24,-59.27 639.8,-48.99 631.39,-55.42 637.24,-59.27"/>
</g>
<!-- GRB2_p&#45;4S&#45;SOS1_p&#45;Y&#45;IRS1_p&#45;Y&#45;IRS2&#45;&gt;p&#45;Y&#45;IRS1_p&#45;Y&#45;IRS2 -->
<g id="edge44" class="edge">
<title>GRB2_p&#45;4S&#45;SOS1_p&#45;Y&#45;IRS1_p&#45;Y&#45;IRS2&#45;&gt;p&#45;Y&#45;IRS1_p&#45;Y&#45;IRS2</title>
<path fill="none" stroke="black" d="M543.39,-139.46C503.29,-148.21 445.42,-167.88 418,-210.84 398.84,-240.87 403,-258.68 418,-290.99 422.71,-301.13 442.9,-317.77 460.71,-331.08"/>
<polygon fill="black" stroke="black" points="459.05,-334.2 469.18,-337.31 463.2,-328.56 459.05,-334.2"/>
</g>
<!-- GRB2&#45;1 -->
<g id="node24" class="node">
<title>GRB2&#45;1</title>
<ellipse fill="none" stroke="black" cx="698" cy="-456.38" rx="18" ry="18"/>
<text text-anchor="middle" x="698" y="-455.18" font-family="Times,serif" font-size="4.00">GRB2&#45;1</text>
</g>
<!-- GRB2&#45;1&#45;&gt;GRB2&#45;1_SOS1 -->
<g id="edge46" class="edge">
<title>GRB2&#45;1&#45;&gt;GRB2&#45;1_SOS1</title>
<path fill="none" stroke="black" d="M702.46,-438.61C706.41,-423.75 712.27,-401.7 717.02,-383.8"/>
<polygon fill="black" stroke="black" points="720.42,-384.66 719.6,-374.1 713.65,-382.87 720.42,-384.66"/>
</g>
<!-- IRS_Insulin_p&#45;6Y&#45;Insulin receptor&#45;&gt;p&#45;Y&#45;IRS_Insulin_p&#45;6Y&#45;Insulin receptor -->
<g id="edge47" class="edge">
<title>IRS_Insulin_p&#45;6Y&#45;Insulin receptor&#45;&gt;p&#45;Y&#45;IRS_Insulin_p&#45;6Y&#45;Insulin receptor</title>
<path fill="none" stroke="black" d="M201.24,-546.39C207.18,-541.92 213.6,-537.6 220,-534.15 278.78,-502.55 352.93,-480.8 401.36,-468.72"/>
<polygon fill="black" stroke="black" points="402.4,-472.07 411.29,-466.29 400.74,-465.27 402.4,-472.07"/>
</g>
<!-- IRS_Insulin_p&#45;6Y&#45;Insulin receptor&#45;&gt;ADP -->
<g id="edge48" class="edge">
<title>IRS_Insulin_p&#45;6Y&#45;Insulin receptor&#45;&gt;ADP</title>
<path fill="none" stroke="black" d="M153.03,-539.25C115.21,-474.44 41.52,-323.97 95,-210.84 109.35,-180.49 141.94,-157.98 164.93,-145.13"/>
<polygon fill="black" stroke="black" points="166.65,-148.18 173.82,-140.38 163.35,-142.01 166.65,-148.18"/>
</g>
<!-- p&#45;Y&#45;IRS1_p&#45;Y&#45;IRS2&#45;&gt;p&#45;Y&#45;IRS1_p&#45;Y&#45;IRS2_PI3K -->
<g id="edge52" class="edge">
<title>p&#45;Y&#45;IRS1_p&#45;Y&#45;IRS2&#45;&gt;p&#45;Y&#45;IRS1_p&#45;Y&#45;IRS2_PI3K</title>
<path fill="none" stroke="black" d="M498.67,-328.38C502.9,-316.99 508.08,-303 512.85,-290.11"/>
<polygon fill="black" stroke="black" points="516.21,-291.13 516.4,-280.53 509.64,-288.7 516.21,-291.13"/>
</g>
<!-- p&#45;Y&#45;IRS1_p&#45;Y&#45;IRS2&#45;&gt;GRB2&#45;1_SOS1_p&#45;Y&#45;IRS1_p&#45;Y&#45;IRS2 -->
<g id="edge49" class="edge">
<title>p&#45;Y&#45;IRS1_p&#45;Y&#45;IRS2&#45;&gt;GRB2&#45;1_SOS1_p&#45;Y&#45;IRS1_p&#45;Y&#45;IRS2</title>
<path fill="none" stroke="black" d="M510.52,-336.79C515.22,-333.48 520.24,-330.05 525,-326.99 552.85,-309.07 585.04,-290.33 610.3,-276.06"/>
<polygon fill="black" stroke="black" points="612.27,-278.96 619.27,-271.01 608.84,-272.86 612.27,-278.96"/>
</g>
<!-- p&#45;Y&#45;IRS1_p&#45;Y&#45;IRS2&#45;&gt;Pi -->
<g id="edge51" class="edge">
<title>p&#45;Y&#45;IRS1_p&#45;Y&#45;IRS2&#45;&gt;Pi</title>
<path fill="none" stroke="black" d="M468.53,-338.21C462.57,-334.51 456.06,-330.54 450,-326.99 421.51,-310.28 410.36,-312.14 385,-290.99 379.3,-286.23 373.87,-280.35 369.16,-274.61"/>
<polygon fill="black" stroke="black" points="371.71,-272.19 362.81,-266.44 366.18,-276.48 371.71,-272.19"/>
</g>
<!-- p&#45;Y&#45;IRS1_p&#45;Y&#45;IRS2&#45;&gt;IRS1_IRS2 -->
<g id="edge50" class="edge">
<title>p&#45;Y&#45;IRS1_p&#45;Y&#45;IRS2&#45;&gt;IRS1_IRS2</title>
<path fill="none" stroke="black" d="M464.62,-347.36C430.24,-340.32 368.32,-323.88 326,-290.99 320.79,-286.94 316.19,-281.6 312.34,-276.17"/>
<polygon fill="black" stroke="black" points="315.28,-274.26 306.92,-267.75 309.39,-278.05 315.28,-274.26"/>
</g>
<!-- GRB10_INSR&#45;&gt;Insulin_p&#45;6Y&#45;Insulin receptor_SHC1 -->
<g id="edge54" class="edge">
<title>GRB10_INSR&#45;&gt;Insulin_p&#45;6Y&#45;Insulin receptor_SHC1</title>
<path fill="none" stroke="black" d="M154.84,-700.83C153.83,-727.67 153.84,-776.43 164,-816.49 179.09,-876 211.5,-939.21 234.48,-979.46"/>
<polygon fill="black" stroke="black" points="231.49,-981.28 239.52,-988.19 237.55,-977.78 231.49,-981.28"/>
</g>
<!-- GRB10_INSR&#45;&gt;IRS_Insulin_p&#45;6Y&#45;Insulin receptor -->
<g id="edge53" class="edge">
<title>GRB10_INSR&#45;&gt;IRS_Insulin_p&#45;6Y&#45;Insulin receptor</title>
<path fill="none" stroke="black" d="M159.2,-658.83C160.96,-647.89 163.23,-633.8 165.42,-620.23"/>
<polygon fill="black" stroke="black" points="168.93,-620.43 167.06,-610 162.02,-619.32 168.93,-620.43"/>
</g>
<!-- protein tyrosine phosphatase -->
<g id="node29" class="node">
<title>protein tyrosine phosphatase</title>
<ellipse fill="none" stroke="black" cx="387" cy="-572.16" rx="32.52" ry="32.52"/>
<text text-anchor="middle" x="387" y="-570.96" font-family="Times,serif" font-size="4.00">protein tyrosine phosphatase</text>
</g>
<!-- protein tyrosine phosphatase&#45;&gt;Pi -->
<g id="edge56" class="edge">
<title>protein tyrosine phosphatase&#45;&gt;Pi</title>
<path fill="none" stroke="black" d="M383.62,-539.38C376.93,-476.58 362.12,-337.57 355.87,-278.89"/>
<polygon fill="black" stroke="black" points="359.35,-278.48 354.81,-268.91 352.39,-279.22 359.35,-278.48"/>
</g>
<!-- protein tyrosine phosphatase&#45;&gt;IRS1_IRS2 -->
<g id="edge58" class="edge">
<title>protein tyrosine phosphatase&#45;&gt;IRS1_IRS2</title>
<path fill="none" stroke="black" d="M378.48,-540.26C361.27,-477.8 322.59,-337.48 306.37,-278.66"/>
<polygon fill="black" stroke="black" points="309.65,-277.37 303.62,-268.66 302.9,-279.23 309.65,-277.37"/>
</g>
<!-- protein tyrosine phosphatase&#45;&gt;insulin receptor -->
<g id="edge57" class="edge">
<title>protein tyrosine phosphatase&#45;&gt;insulin receptor</title>
<path fill="none" stroke="black" d="M363.25,-549.52C357.62,-544.45 351.62,-539.09 346,-534.15 323.91,-514.77 298.4,-493.07 280.19,-477.7"/>
<polygon fill="black" stroke="black" points="282.28,-474.88 272.38,-471.12 277.77,-480.24 282.28,-474.88"/>
</g>
<!-- protein tyrosine phosphatase&#45;&gt;SHC1 -->
<g id="edge55" class="edge">
<title>protein tyrosine phosphatase&#45;&gt;SHC1</title>
<path fill="none" stroke="black" d="M416.57,-557.06C441.56,-544.15 477.3,-523.27 503,-498.15 507.94,-493.33 512.47,-487.45 516.35,-481.67"/>
<polygon fill="black" stroke="black" points="519.53,-483.19 521.87,-472.86 513.6,-479.47 519.53,-483.19"/>
</g>
<!-- Insulin -->
<g id="node30" class="node">
<title>Insulin</title>
<ellipse fill="none" stroke="black" cx="122" cy="-352.8" rx="18" ry="18"/>
<text text-anchor="middle" x="122" y="-351.6" font-family="Times,serif" font-size="4.00">Insulin</text>
</g>
<!-- Insulin&#45;&gt;Insulin_Insulin receptor -->
<g id="edge59" class="edge">
<title>Insulin&#45;&gt;Insulin_Insulin receptor</title>
<path fill="none" stroke="black" d="M123.87,-334.86C125.21,-322.65 127.08,-305.67 128.78,-290.26"/>
<polygon fill="black" stroke="black" points="132.3,-290.24 129.92,-279.92 125.34,-289.47 132.3,-290.24"/>
</g>
<!-- H+ -->
<g id="node31" class="node">
<title>H+</title>
<ellipse fill="none" stroke="black" cx="903" cy="-782.85" rx="18" ry="18"/>
<text text-anchor="middle" x="903" y="-781.65" font-family="Times,serif" font-size="4.00">H+</text>
</g>
<!-- IDA -->
<g id="node32" class="node">
<title>IDA</title>
<ellipse fill="none" stroke="black" cx="984" cy="-1022.53" rx="18" ry="18"/>
<text text-anchor="middle" x="984" y="-1021.33" font-family="Times,serif" font-size="4.00">IDA</text>
</g>
<!-- Insulin_Insulin receptor&#45;&gt;Insulin_p&#45;6Y&#45;Insulin receptor -->
<g id="edge60" class="edge">
<title>Insulin_Insulin receptor&#45;&gt;Insulin_p&#45;6Y&#45;Insulin receptor</title>
<path fill="none" stroke="black" d="M117.45,-275.48C108.99,-289.74 99.37,-308.66 95,-326.99 65.61,-450.14 56.43,-504.38 126,-610.16 143.09,-636.14 164.94,-623.28 186,-646.16 208.49,-670.6 200.47,-685.65 219,-713.21 227.89,-726.43 239.14,-739.79 249.54,-751.16"/>
<polygon fill="black" stroke="black" points="247.19,-753.77 256.57,-758.69 252.31,-749 247.19,-753.77"/>
</g>
<!-- Insulin_Insulin receptor&#45;&gt;ADP -->
<g id="edge61" class="edge">
<title>Insulin_Insulin receptor&#45;&gt;ADP</title>
<path fill="none" stroke="black" d="M145.23,-224.8C154.95,-204.82 168.48,-177.02 178.12,-157.23"/>
<polygon fill="black" stroke="black" points="181.27,-158.75 182.5,-148.23 174.98,-155.69 181.27,-158.75"/>
</g>
<!-- SHC1&#45;&gt;Insulin_p&#45;6Y&#45;Insulin receptor_SHC1 -->
<g id="edge62" class="edge">
<title>SHC1&#45;&gt;Insulin_p&#45;6Y&#45;Insulin receptor_SHC1</title>
<path fill="none" stroke="black" d="M527.02,-474.33C521.67,-503 509.16,-562.6 490,-610.16 488.05,-615.01 342.74,-874.1 284.12,-978.56"/>
<polygon fill="black" stroke="black" points="281.06,-976.86 279.22,-987.29 287.17,-980.28 281.06,-976.86"/>
</g>
<!-- SOS1 -->
<g id="node36" class="node">
<title>SOS1</title>
<ellipse fill="none" stroke="black" cx="752" cy="-456.38" rx="18" ry="18"/>
<text text-anchor="middle" x="752" y="-455.18" font-family="Times,serif" font-size="4.00">SOS1</text>
</g>
<!-- SOS1&#45;&gt;GRB2&#45;1_SOS1 -->
<g id="edge63" class="edge">
<title>SOS1&#45;&gt;GRB2&#45;1_SOS1</title>
<path fill="none" stroke="black" d="M747.54,-438.61C743.59,-423.75 737.73,-401.7 732.98,-383.8"/>
<polygon fill="black" stroke="black" points="736.35,-382.87 730.4,-374.1 729.58,-384.66 736.35,-382.87"/>
</g>
<!-- Insulin_p&#45;6Y&#45;insulin receptor&#45;&gt;p&#45;6Y&#45;insulin receptor -->
<g id="edge64" class="edge">
<title>Insulin_p&#45;6Y&#45;insulin receptor&#45;&gt;p&#45;6Y&#45;insulin receptor</title>
<path fill="none" stroke="black" d="M306.54,-646.16C307.1,-634.36 307.73,-620.96 308.31,-608.9"/>
<polygon fill="black" stroke="black" points="311.81,-608.86 308.79,-598.71 304.82,-608.53 311.81,-608.86"/>
</g>
<!-- Insulin_p&#45;6Y&#45;insulin receptor&#45;&gt;insulin -->
<g id="edge65" class="edge">
<title>Insulin_p&#45;6Y&#45;insulin receptor&#45;&gt;insulin</title>
<path fill="none" stroke="black" d="M289.15,-649.85C280.1,-633.37 268.87,-612.95 260.28,-597.32"/>
<polygon fill="black" stroke="black" points="263.2,-595.37 255.32,-588.29 257.07,-598.74 263.2,-595.37"/>
</g>
<!-- Insulin_p&#45;6Y&#45;Insulin receptor_p&#45;Y427&#45;SHC1&#45;&gt;Insulin_p&#45;6Y&#45;Insulin receptor -->
<g id="edge67" class="edge">
<title>Insulin_p&#45;6Y&#45;Insulin receptor_p&#45;Y427&#45;SHC1&#45;&gt;Insulin_p&#45;6Y&#45;Insulin receptor</title>
<path fill="none" stroke="black" d="M375.89,-867.82C356.18,-850.56 331.74,-829.16 312.47,-812.28"/>
<polygon fill="black" stroke="black" points="314.65,-809.54 304.82,-805.59 310.04,-814.81 314.65,-809.54"/>
</g>
<!-- Insulin_p&#45;6Y&#45;Insulin receptor_p&#45;Y427&#45;SHC1&#45;&gt;p&#45;Y427&#45;SHC1 -->
<g id="edge66" class="edge">
<title>Insulin_p&#45;6Y&#45;Insulin receptor_p&#45;Y427&#45;SHC1&#45;&gt;p&#45;Y427&#45;SHC1</title>
<path fill="none" stroke="black" d="M454.81,-881.55C483.16,-868.19 518.34,-846.76 538,-816.49 581.19,-749.98 581.75,-652.12 578.77,-603.24"/>
<polygon fill="black" stroke="black" points="582.25,-602.76 578.05,-593.03 575.26,-603.25 582.25,-602.76"/>
</g>
<!-- ATP6AP1 -->
<g id="node39" class="node">
<title>ATP6AP1</title>
<ellipse fill="none" stroke="black" cx="930" cy="-1022.53" rx="18" ry="18"/>
<text text-anchor="middle" x="930" y="-1021.33" font-family="Times,serif" font-size="4.00">ATP6AP1</text>
</g>
<!-- ATP6AP1&#45;&gt;V&#45;ATPase_ATP6AP1 -->
<g id="edge68" class="edge">
<title>ATP6AP1&#45;&gt;V&#45;ATPase_ATP6AP1</title>
<path fill="none" stroke="black" d="M926.25,-1004.71C922.28,-986.92 915.9,-958.34 910.82,-935.62"/>
<polygon fill="black" stroke="black" points="914.19,-934.64 908.6,-925.65 907.36,-936.17 914.19,-934.64"/>
</g>
<!-- V&#45;ATPase_ATP6AP1&#45;&gt;H+ -->
<g id="edge69" class="edge">
<title>V&#45;ATPase_ATP6AP1&#45;&gt;H+</title>
<path fill="none" stroke="black" d="M903,-872.82C903,-854.49 903,-829.89 903,-811.2"/>
<polygon fill="black" stroke="black" points="906.5,-810.97 903,-800.97 899.5,-810.97 906.5,-810.97"/>
</g>
<!-- PI3K -->
<g id="node42" class="node">
<title>PI3K</title>
<ellipse fill="none" stroke="black" cx="552" cy="-352.8" rx="18" ry="18"/>
<text text-anchor="middle" x="552" y="-351.6" font-family="Times,serif" font-size="4.00">PI3K</text>
</g>
<!-- PI3K&#45;&gt;p&#45;Y&#45;IRS1_p&#45;Y&#45;IRS2_PI3K -->
<g id="edge70" class="edge">
<title>PI3K&#45;&gt;p&#45;Y&#45;IRS1_p&#45;Y&#45;IRS2_PI3K</title>
<path fill="none" stroke="black" d="M547.76,-334.86C544.77,-322.89 540.63,-306.36 536.83,-291.2"/>
<polygon fill="black" stroke="black" points="540.23,-290.35 534.4,-281.5 533.44,-292.05 540.23,-290.35"/>
</g>
</g>
</svg>
