<?xml version="1.0" encoding="UTF-8" standalone="no"?>
<!DOCTYPE svg PUBLIC "-//W3C//DTD SVG 1.1//EN"
 "http://www.w3.org/Graphics/SVG/1.1/DTD/svg11.dtd">
<!-- Generated by graphviz version 2.43.0 (0)
 -->
<!-- Title: G Pages: 1 -->
<svg width="726pt" height="728pt"
 viewBox="0.00 0.00 726.00 728.15" xmlns="http://www.w3.org/2000/svg" xmlns:xlink="http://www.w3.org/1999/xlink">
<g id="graph0" class="graph" transform="scale(1 1) rotate(0) translate(4 724.15)">
<title>G</title>
<polygon fill="white" stroke="transparent" points="-4,4 -4,-724.15 722,-724.15 722,4 -4,4"/>
<!-- ssRNA -->
<g id="node1" class="node">
<title>ssRNA</title>
<ellipse fill="none" stroke="black" cx="73" cy="-525.22" rx="18" ry="18"/>
<text text-anchor="middle" x="73" y="-524.02" font-family="Times,serif" font-size="4.00">ssRNA</text>
</g>
<!-- TLR7 -->
<g id="node2" class="node">
<title>TLR7</title>
<ellipse fill="none" stroke="black" cx="100" cy="-439.75" rx="18" ry="18"/>
<text text-anchor="middle" x="100" y="-438.55" font-family="Times,serif" font-size="4.00">TLR7</text>
</g>
<!-- ssRNA&#45;&gt;TLR7 -->
<g id="edge1" class="edge">
<title>ssRNA&#45;&gt;TLR7</title>
<path fill="none" stroke="black" d="M78.33,-507.73C82.11,-496.07 87.24,-480.2 91.56,-466.83"/>
<polygon fill="black" stroke="black" points="94.93,-467.8 94.68,-457.21 88.27,-465.65 94.93,-467.8"/>
</g>
<!-- TLR8 -->
<g id="node3" class="node">
<title>TLR8</title>
<ellipse fill="none" stroke="black" cx="46" cy="-439.75" rx="18" ry="18"/>
<text text-anchor="middle" x="46" y="-438.55" font-family="Times,serif" font-size="4.00">TLR8</text>
</g>
<!-- ssRNA&#45;&gt;TLR8 -->
<g id="edge2" class="edge">
<title>ssRNA&#45;&gt;TLR8</title>
<path fill="none" stroke="black" d="M67.67,-507.73C63.89,-496.07 58.76,-480.2 54.44,-466.83"/>
<polygon fill="black" stroke="black" points="57.73,-465.65 51.32,-457.21 51.07,-467.8 57.73,-465.65"/>
</g>
<!-- MYD88 -->
<g id="node4" class="node">
<title>MYD88</title>
<ellipse fill="none" stroke="black" cx="46" cy="-342.99" rx="18" ry="18"/>
<text text-anchor="middle" x="46" y="-341.79" font-family="Times,serif" font-size="4.00">MYD88</text>
</g>
<!-- TLR7&#45;&gt;MYD88 -->
<g id="edge3" class="edge">
<title>TLR7&#45;&gt;MYD88</title>
<path fill="none" stroke="black" d="M91.32,-423.53C82.82,-408.61 69.73,-385.63 59.8,-368.2"/>
<polygon fill="black" stroke="black" points="62.65,-366.14 54.65,-359.18 56.56,-369.6 62.65,-366.14"/>
</g>
<!-- TLR8&#45;&gt;MYD88 -->
<g id="edge4" class="edge">
<title>TLR8&#45;&gt;MYD88</title>
<path fill="none" stroke="black" d="M46,-421.37C46,-407.48 46,-387.74 46,-371.68"/>
<polygon fill="black" stroke="black" points="49.5,-371.26 46,-361.26 42.5,-371.26 49.5,-371.26"/>
</g>
<!-- MYD88_IRAK_TRAF -->
<g id="node49" class="node">
<title>MYD88_IRAK_TRAF</title>
<ellipse fill="none" stroke="black" cx="74" cy="-249.41" rx="28.07" ry="28.07"/>
<text text-anchor="middle" x="74" y="-248.21" font-family="Times,serif" font-size="4.00">MYD88_IRAK_TRAF</text>
</g>
<!-- MYD88&#45;&gt;MYD88_IRAK_TRAF -->
<g id="edge5" class="edge">
<title>MYD88&#45;&gt;MYD88_IRAK_TRAF</title>
<path fill="none" stroke="black" d="M51.01,-325.62C54.35,-314.69 58.87,-299.88 63.03,-286.3"/>
<polygon fill="black" stroke="black" points="66.39,-287.28 65.96,-276.69 59.69,-285.23 66.39,-287.28"/>
</g>
<!-- TANK_TRAF3_IKBKE -->
<g id="node5" class="node">
<title>TANK_TRAF3_IKBKE</title>
<ellipse fill="none" stroke="black" cx="325" cy="-342.99" rx="29.09" ry="29.09"/>
<text text-anchor="middle" x="325" y="-341.79" font-family="Times,serif" font-size="4.00">TANK_TRAF3_IKBKE</text>
</g>
<!-- TBK1 -->
<g id="node6" class="node">
<title>TBK1</title>
<ellipse fill="none" stroke="black" cx="338" cy="-249.41" rx="18" ry="18"/>
<text text-anchor="middle" x="338" y="-248.21" font-family="Times,serif" font-size="4.00">TBK1</text>
</g>
<!-- TANK_TRAF3_IKBKE&#45;&gt;TBK1 -->
<g id="edge6" class="edge">
<title>TANK_TRAF3_IKBKE&#45;&gt;TBK1</title>
<path fill="none" stroke="black" d="M329.04,-313.52C330.67,-302.06 332.54,-288.9 334.14,-277.58"/>
<polygon fill="black" stroke="black" points="337.65,-277.79 335.59,-267.4 330.72,-276.81 337.65,-277.79"/>
</g>
<!-- IKBKE -->
<g id="node10" class="node">
<title>IKBKE</title>
<ellipse fill="none" stroke="black" cx="138" cy="-249.41" rx="18" ry="18"/>
<text text-anchor="middle" x="138" y="-248.21" font-family="Times,serif" font-size="4.00">IKBKE</text>
</g>
<!-- TANK_TRAF3_IKBKE&#45;&gt;IKBKE -->
<g id="edge7" class="edge">
<title>TANK_TRAF3_IKBKE&#45;&gt;IKBKE</title>
<path fill="none" stroke="black" d="M296.72,-334.46C263.37,-324.75 207.14,-305.69 165,-277.7 162.11,-275.78 159.29,-273.52 156.61,-271.13"/>
<polygon fill="black" stroke="black" points="158.73,-268.3 149.15,-263.79 153.83,-273.3 158.73,-268.3"/>
</g>
<!-- IRF3 -->
<g id="node15" class="node">
<title>IRF3</title>
<ellipse fill="none" stroke="black" cx="261" cy="-164.56" rx="18" ry="18"/>
<text text-anchor="middle" x="261" y="-163.36" font-family="Times,serif" font-size="4.00">IRF3</text>
</g>
<!-- TBK1&#45;&gt;IRF3 -->
<g id="edge8" class="edge">
<title>TBK1&#45;&gt;IRF3</title>
<path fill="none" stroke="black" d="M325.97,-235.47C313.65,-222.21 294.32,-201.42 279.95,-185.95"/>
<polygon fill="black" stroke="black" points="282.32,-183.36 272.95,-178.42 277.19,-188.13 282.32,-183.36"/>
</g>
<!-- NFKBIA -->
<g id="node7" class="node">
<title>NFKBIA</title>
<ellipse fill="none" stroke="black" cx="311" cy="-90" rx="18" ry="18"/>
<text text-anchor="middle" x="311" y="-88.8" font-family="Times,serif" font-size="4.00">NFKBIA</text>
</g>
<!-- NFKB -->
<g id="node8" class="node">
<title>NFKB</title>
<ellipse fill="none" stroke="black" cx="115" cy="-18" rx="18" ry="18"/>
<text text-anchor="middle" x="115" y="-16.8" font-family="Times,serif" font-size="4.00">NFKB</text>
</g>
<!-- NFKBIA&#45;&gt;NFKB -->
<g id="edge9" class="edge">
<title>NFKBIA&#45;&gt;NFKB</title>
<path fill="none" stroke="black" d="M294.29,-83.03C260.15,-70.84 182.19,-43 141.23,-28.37"/>
<polygon fill="black" stroke="black" points="142.26,-25.02 131.67,-24.95 139.91,-31.61 142.26,-25.02"/>
</g>
<!-- Nsp3 -->
<g id="node9" class="node">
<title>Nsp3</title>
<ellipse fill="none" stroke="black" cx="276" cy="-685.69" rx="18" ry="18"/>
<text text-anchor="middle" x="276" y="-684.49" font-family="Times,serif" font-size="4.00">Nsp3</text>
</g>
<!-- Nsp3&#45;&gt;IKBKE -->
<g id="edge10" class="edge">
<title>Nsp3&#45;&gt;IKBKE</title>
<path fill="none" stroke="black" d="M264,-671.85C252.22,-658.61 234.55,-636.9 224,-615.22 206.07,-578.39 200,-567.19 200,-526.22 200,-526.22 200,-526.22 200,-438.75 200,-382.54 201.53,-366.04 181,-313.7 174.99,-298.37 164.72,-283.06 155.73,-271.33"/>
<polygon fill="black" stroke="black" points="158.45,-269.13 149.48,-263.48 152.97,-273.48 158.45,-269.13"/>
</g>
<!-- DDX58 -->
<g id="node11" class="node">
<title>DDX58</title>
<ellipse fill="none" stroke="black" cx="360" cy="-597.22" rx="18" ry="18"/>
<text text-anchor="middle" x="360" y="-596.02" font-family="Times,serif" font-size="4.00">DDX58</text>
</g>
<!-- Nsp3&#45;&gt;DDX58 -->
<g id="edge11" class="edge">
<title>Nsp3&#45;&gt;DDX58</title>
<path fill="none" stroke="black" d="M288.04,-672.3C301.68,-658.25 324.13,-635.15 340.33,-618.47"/>
<polygon fill="black" stroke="black" points="343.26,-620.48 347.71,-610.87 338.24,-615.6 343.26,-620.48"/>
</g>
<!-- IFIH1 -->
<g id="node12" class="node">
<title>IFIH1</title>
<ellipse fill="none" stroke="black" cx="414" cy="-597.22" rx="18" ry="18"/>
<text text-anchor="middle" x="414" y="-596.02" font-family="Times,serif" font-size="4.00">IFIH1</text>
</g>
<!-- Nsp3&#45;&gt;IFIH1 -->
<g id="edge12" class="edge">
<title>Nsp3&#45;&gt;IFIH1</title>
<path fill="none" stroke="black" d="M291.09,-675.26C312.45,-661.92 352.73,-636.74 387,-615.22 388.11,-614.53 389.24,-613.82 390.39,-613.1"/>
<polygon fill="black" stroke="black" points="392.55,-615.87 399.15,-607.58 388.82,-609.95 392.55,-615.87"/>
</g>
<!-- Nsp3&#45;&gt;IRF3 -->
<g id="edge14" class="edge">
<title>Nsp3&#45;&gt;IRF3</title>
<path fill="none" stroke="black" d="M269.55,-668.79C258.71,-640.58 238,-579.69 238,-526.22 238,-526.22 238,-526.22 238,-341.99 238,-288.76 248.42,-227.24 255.24,-192.71"/>
<polygon fill="black" stroke="black" points="258.75,-193 257.3,-182.5 251.89,-191.61 258.75,-193"/>
</g>
<!-- TRAF6 -->
<g id="node17" class="node">
<title>TRAF6</title>
<ellipse fill="none" stroke="black" cx="514" cy="-342.99" rx="18" ry="18"/>
<text text-anchor="middle" x="514" y="-341.79" font-family="Times,serif" font-size="4.00">TRAF6</text>
</g>
<!-- Nsp3&#45;&gt;TRAF6 -->
<g id="edge13" class="edge">
<title>Nsp3&#45;&gt;TRAF6</title>
<path fill="none" stroke="black" d="M283.43,-669.27C293.71,-648.35 313.25,-610.07 333,-579.22 354.57,-545.54 358.18,-534.97 387,-507.22 407.25,-487.73 419.86,-491.81 439,-471.22 467.76,-440.28 490.57,-396.46 503.17,-369.16"/>
<polygon fill="black" stroke="black" points="506.43,-370.46 507.35,-359.91 500.05,-367.58 506.43,-370.46"/>
</g>
<!-- IRF7 -->
<g id="node46" class="node">
<title>IRF7</title>
<ellipse fill="none" stroke="black" cx="106" cy="-164.56" rx="18" ry="18"/>
<text text-anchor="middle" x="106" y="-163.36" font-family="Times,serif" font-size="4.00">IRF7</text>
</g>
<!-- IKBKE&#45;&gt;IRF7 -->
<g id="edge15" class="edge">
<title>IKBKE&#45;&gt;IRF7</title>
<path fill="none" stroke="black" d="M131.83,-232.44C127.31,-220.75 121.09,-204.64 115.89,-191.17"/>
<polygon fill="black" stroke="black" points="119.02,-189.56 112.15,-181.49 112.49,-192.08 119.02,-189.56"/>
</g>
<!-- MAVS -->
<g id="node38" class="node">
<title>MAVS</title>
<ellipse fill="none" stroke="black" cx="414" cy="-525.22" rx="18" ry="18"/>
<text text-anchor="middle" x="414" y="-524.02" font-family="Times,serif" font-size="4.00">MAVS</text>
</g>
<!-- DDX58&#45;&gt;MAVS -->
<g id="edge16" class="edge">
<title>DDX58&#45;&gt;MAVS</title>
<path fill="none" stroke="black" d="M370.67,-582.39C378.21,-572.61 388.48,-559.3 397.13,-548.09"/>
<polygon fill="black" stroke="black" points="400.02,-550.08 403.35,-540.02 394.47,-545.8 400.02,-550.08"/>
</g>
<!-- IFIH1&#45;&gt;MAVS -->
<g id="edge17" class="edge">
<title>IFIH1&#45;&gt;MAVS</title>
<path fill="none" stroke="black" d="M414,-578.92C414,-571.21 414,-561.94 414,-553.34"/>
<polygon fill="black" stroke="black" points="417.5,-553.33 414,-543.33 410.5,-553.33 417.5,-553.33"/>
</g>
<!-- M -->
<g id="node13" class="node">
<title>M</title>
<ellipse fill="none" stroke="black" cx="360" cy="-685.69" rx="18" ry="18"/>
<text text-anchor="middle" x="360" y="-684.49" font-family="Times,serif" font-size="4.00">M</text>
</g>
<!-- M&#45;&gt;TANK_TRAF3_IKBKE -->
<g id="edge20" class="edge">
<title>M&#45;&gt;TANK_TRAF3_IKBKE</title>
<path fill="none" stroke="black" d="M350.73,-670.16C335.51,-645.32 305.8,-592.6 295,-543.22 282.18,-484.64 282.01,-466.83 295,-408.29 297.28,-398 301.38,-387.42 305.84,-377.88"/>
<polygon fill="black" stroke="black" points="309.06,-379.25 310.36,-368.74 302.79,-376.15 309.06,-379.25"/>
</g>
<!-- M&#45;&gt;DDX58 -->
<g id="edge18" class="edge">
<title>M&#45;&gt;DDX58</title>
<path fill="none" stroke="black" d="M360,-667.61C360,-655.64 360,-639.41 360,-625.65"/>
<polygon fill="black" stroke="black" points="363.5,-625.27 360,-615.27 356.5,-625.27 363.5,-625.27"/>
</g>
<!-- M&#45;&gt;IFIH1 -->
<g id="edge19" class="edge">
<title>M&#45;&gt;IFIH1</title>
<path fill="none" stroke="black" d="M369.16,-670.02C377.46,-656.73 389.83,-636.92 399.48,-621.47"/>
<polygon fill="black" stroke="black" points="402.47,-623.3 404.79,-612.96 396.53,-619.59 402.47,-623.3"/>
</g>
<!-- Orf8 -->
<g id="node14" class="node">
<title>Orf8</title>
<ellipse fill="none" stroke="black" cx="284" cy="-249.41" rx="18" ry="18"/>
<text text-anchor="middle" x="284" y="-248.21" font-family="Times,serif" font-size="4.00">Orf8</text>
</g>
<!-- Orf8&#45;&gt;IRF3 -->
<g id="edge21" class="edge">
<title>Orf8&#45;&gt;IRF3</title>
<path fill="none" stroke="black" d="M279.35,-231.65C276.18,-220.23 271.92,-204.89 268.3,-191.86"/>
<polygon fill="black" stroke="black" points="271.62,-190.72 265.57,-182.02 264.87,-192.59 271.62,-190.72"/>
</g>
<!-- Orf3b -->
<g id="node16" class="node">
<title>Orf3b</title>
<ellipse fill="none" stroke="black" cx="192" cy="-249.41" rx="18" ry="18"/>
<text text-anchor="middle" x="192" y="-248.21" font-family="Times,serif" font-size="4.00">Orf3b</text>
</g>
<!-- Orf3b&#45;&gt;IRF3 -->
<g id="edge22" class="edge">
<title>Orf3b&#45;&gt;IRF3</title>
<path fill="none" stroke="black" d="M203.09,-235.1C213.95,-222.06 230.68,-201.97 243.37,-186.73"/>
<polygon fill="black" stroke="black" points="246.23,-188.77 249.94,-178.84 240.85,-184.29 246.23,-188.77"/>
</g>
<!-- MAP3K7 -->
<g id="node18" class="node">
<title>MAP3K7</title>
<ellipse fill="none" stroke="black" cx="538" cy="-249.41" rx="18" ry="18"/>
<text text-anchor="middle" x="538" y="-248.21" font-family="Times,serif" font-size="4.00">MAP3K7</text>
</g>
<!-- TRAF6&#45;&gt;MAP3K7 -->
<g id="edge23" class="edge">
<title>TRAF6&#45;&gt;MAP3K7</title>
<path fill="none" stroke="black" d="M518.4,-325.2C521.92,-311.77 526.92,-292.7 530.99,-277.17"/>
<polygon fill="black" stroke="black" points="534.48,-277.66 533.63,-267.1 527.71,-275.89 534.48,-277.66"/>
</g>
<!-- MAVS_TRAF -->
<g id="node37" class="node">
<title>MAVS_TRAF</title>
<ellipse fill="none" stroke="black" cx="514" cy="-439.75" rx="20.65" ry="20.65"/>
<text text-anchor="middle" x="514" y="-438.55" font-family="Times,serif" font-size="4.00">MAVS_TRAF</text>
</g>
<!-- TRAF6&#45;&gt;MAVS_TRAF -->
<g id="edge24" class="edge">
<title>TRAF6&#45;&gt;MAVS_TRAF</title>
<path fill="none" stroke="black" d="M519.24,-360.3C520.8,-373.8 521.15,-393.32 520.29,-409.51"/>
<polygon fill="black" stroke="black" points="516.79,-409.35 519.55,-419.58 523.77,-409.86 516.79,-409.35"/>
</g>
<!-- IKK Complex -->
<g id="node41" class="node">
<title>IKK Complex</title>
<ellipse fill="none" stroke="black" cx="409" cy="-164.56" rx="20.63" ry="20.63"/>
<text text-anchor="middle" x="409" y="-163.36" font-family="Times,serif" font-size="4.00">IKK Complex</text>
</g>
<!-- TRAF6&#45;&gt;IKK Complex -->
<g id="edge25" class="edge">
<title>TRAF6&#45;&gt;IKK Complex</title>
<path fill="none" stroke="black" d="M511.18,-325.11C506.47,-300.54 495.24,-254.24 473,-221.13 462.77,-205.9 447.32,-192.32 434.17,-182.4"/>
<polygon fill="black" stroke="black" points="436.08,-179.47 425.93,-176.43 431.97,-185.13 436.08,-179.47"/>
</g>
<!-- MAP2K6 -->
<g id="node19" class="node">
<title>MAP2K6</title>
<ellipse fill="none" stroke="black" cx="538" cy="-164.56" rx="18" ry="18"/>
<text text-anchor="middle" x="538" y="-163.36" font-family="Times,serif" font-size="4.00">MAP2K6</text>
</g>
<!-- MAP3K7&#45;&gt;MAP2K6 -->
<g id="edge26" class="edge">
<title>MAP3K7&#45;&gt;MAP2K6</title>
<path fill="none" stroke="black" d="M538,-231.25C538,-220.14 538,-205.44 538,-192.76"/>
<polygon fill="black" stroke="black" points="541.5,-192.71 538,-182.71 534.5,-192.71 541.5,-192.71"/>
</g>
<!-- MAP2K3 -->
<g id="node20" class="node">
<title>MAP2K3</title>
<ellipse fill="none" stroke="black" cx="484" cy="-164.56" rx="18" ry="18"/>
<text text-anchor="middle" x="484" y="-163.36" font-family="Times,serif" font-size="4.00">MAP2K3</text>
</g>
<!-- MAP3K7&#45;&gt;MAP2K3 -->
<g id="edge27" class="edge">
<title>MAP3K7&#45;&gt;MAP2K3</title>
<path fill="none" stroke="black" d="M528.59,-233.98C520.44,-221.47 508.48,-203.13 499,-188.59"/>
<polygon fill="black" stroke="black" points="501.87,-186.57 493.48,-180.11 496.01,-190.4 501.87,-186.57"/>
</g>
<!-- MAP2K4 -->
<g id="node21" class="node">
<title>MAP2K4</title>
<ellipse fill="none" stroke="black" cx="646" cy="-164.56" rx="18" ry="18"/>
<text text-anchor="middle" x="646" y="-163.36" font-family="Times,serif" font-size="4.00">MAP2K4</text>
</g>
<!-- MAP3K7&#45;&gt;MAP2K4 -->
<g id="edge28" class="edge">
<title>MAP3K7&#45;&gt;MAP2K4</title>
<path fill="none" stroke="black" d="M552.12,-237.58C570.39,-223.56 602.43,-198.99 623.93,-182.49"/>
<polygon fill="black" stroke="black" points="626.07,-185.26 631.88,-176.4 621.81,-179.71 626.07,-185.26"/>
</g>
<!-- MAP2K7 -->
<g id="node22" class="node">
<title>MAP2K7</title>
<ellipse fill="none" stroke="black" cx="700" cy="-164.56" rx="18" ry="18"/>
<text text-anchor="middle" x="700" y="-163.36" font-family="Times,serif" font-size="4.00">MAP2K7</text>
</g>
<!-- MAP3K7&#45;&gt;MAP2K7 -->
<g id="edge29" class="edge">
<title>MAP3K7&#45;&gt;MAP2K7</title>
<path fill="none" stroke="black" d="M554.72,-241.78C580.74,-231.19 632.19,-209.18 673,-185.13 674.51,-184.24 676.04,-183.29 677.56,-182.3"/>
<polygon fill="black" stroke="black" points="679.81,-185 686.05,-176.44 675.83,-179.24 679.81,-185"/>
</g>
<!-- MAPK14 -->
<g id="node23" class="node">
<title>MAPK14</title>
<ellipse fill="none" stroke="black" cx="551" cy="-90" rx="18" ry="18"/>
<text text-anchor="middle" x="551" y="-88.8" font-family="Times,serif" font-size="4.00">MAPK14</text>
</g>
<!-- MAP2K6&#45;&gt;MAPK14 -->
<g id="edge30" class="edge">
<title>MAP2K6&#45;&gt;MAPK14</title>
<path fill="none" stroke="black" d="M541.02,-146.73C542.55,-138.19 544.44,-127.59 546.17,-117.95"/>
<polygon fill="black" stroke="black" points="549.64,-118.45 547.96,-107.99 542.75,-117.22 549.64,-118.45"/>
</g>
<!-- MAP2K3&#45;&gt;MAPK14 -->
<g id="edge31" class="edge">
<title>MAP2K3&#45;&gt;MAPK14</title>
<path fill="none" stroke="black" d="M495.98,-150.59C506.08,-139.65 520.7,-123.81 532.34,-111.21"/>
<polygon fill="black" stroke="black" points="534.91,-113.58 539.13,-103.86 529.77,-108.83 534.91,-113.58"/>
</g>
<!-- JNK -->
<g id="node25" class="node">
<title>JNK</title>
<ellipse fill="none" stroke="black" cx="632" cy="-90" rx="18" ry="18"/>
<text text-anchor="middle" x="632" y="-88.8" font-family="Times,serif" font-size="4.00">JNK</text>
</g>
<!-- MAP2K4&#45;&gt;JNK -->
<g id="edge32" class="edge">
<title>MAP2K4&#45;&gt;JNK</title>
<path fill="none" stroke="black" d="M642.75,-146.73C641.09,-138.12 639.03,-127.44 637.16,-117.74"/>
<polygon fill="black" stroke="black" points="640.56,-116.89 635.23,-107.74 633.69,-118.22 640.56,-116.89"/>
</g>
<!-- MAP2K7&#45;&gt;JNK -->
<g id="edge33" class="edge">
<title>MAP2K7&#45;&gt;JNK</title>
<path fill="none" stroke="black" d="M688.16,-150.92C677.95,-140.03 663.01,-124.1 651.12,-111.4"/>
<polygon fill="black" stroke="black" points="653.56,-108.89 644.17,-103.98 648.45,-113.67 653.56,-108.89"/>
</g>
<!-- AP1 -->
<g id="node24" class="node">
<title>AP1</title>
<ellipse fill="none" stroke="black" cx="591" cy="-18" rx="18" ry="18"/>
<text text-anchor="middle" x="591" y="-16.8" font-family="Times,serif" font-size="4.00">AP1</text>
</g>
<!-- MAPK14&#45;&gt;AP1 -->
<g id="edge34" class="edge">
<title>MAPK14&#45;&gt;AP1</title>
<path fill="none" stroke="black" d="M559.68,-73.81C564.82,-64.82 571.44,-53.23 577.27,-43.03"/>
<polygon fill="black" stroke="black" points="580.41,-44.58 582.34,-34.16 574.34,-41.11 580.41,-44.58"/>
</g>
<!-- JNK&#45;&gt;AP1 -->
<g id="edge35" class="edge">
<title>JNK&#45;&gt;AP1</title>
<path fill="none" stroke="black" d="M623.3,-74.15C617.92,-64.97 610.9,-52.97 604.77,-42.51"/>
<polygon fill="black" stroke="black" points="607.76,-40.68 599.68,-33.82 601.72,-44.22 607.76,-40.68"/>
</g>
<!-- E -->
<g id="node26" class="node">
<title>E</title>
<ellipse fill="none" stroke="black" cx="592" cy="-164.56" rx="18" ry="18"/>
<text text-anchor="middle" x="592" y="-163.36" font-family="Times,serif" font-size="4.00">E</text>
</g>
<!-- E&#45;&gt;MAPK14 -->
<g id="edge36" class="edge">
<title>E&#45;&gt;MAPK14</title>
<path fill="none" stroke="black" d="M583.5,-148.53C578.01,-138.8 570.73,-125.92 564.46,-114.82"/>
<polygon fill="black" stroke="black" points="567.45,-113 559.48,-106.02 561.36,-116.44 567.45,-113"/>
</g>
<!-- E&#45;&gt;JNK -->
<g id="edge37" class="edge">
<title>E&#45;&gt;JNK</title>
<path fill="none" stroke="black" d="M600.29,-148.53C605.65,-138.8 612.75,-125.92 618.87,-114.82"/>
<polygon fill="black" stroke="black" points="621.96,-116.46 623.72,-106.02 615.83,-113.08 621.96,-116.46"/>
</g>
<!-- N -->
<g id="node27" class="node">
<title>N</title>
<ellipse fill="none" stroke="black" cx="111" cy="-685.69" rx="18" ry="18"/>
<text text-anchor="middle" x="111" y="-684.49" font-family="Times,serif" font-size="4.00">N</text>
</g>
<!-- N&#45;&gt;NFKB -->
<g id="edge38" class="edge">
<title>N&#45;&gt;NFKB</title>
<path fill="none" stroke="black" d="M96.49,-674.21C66.4,-651.15 0,-592.73 0,-526.22 0,-526.22 0,-526.22 0,-163.56 0,-105.27 57.97,-56.88 91.59,-33.72"/>
<polygon fill="black" stroke="black" points="93.6,-36.59 99.97,-28.12 89.71,-30.77 93.6,-36.59"/>
</g>
<!-- N&#45;&gt;DDX58 -->
<g id="edge39" class="edge">
<title>N&#45;&gt;DDX58</title>
<path fill="none" stroke="black" d="M127.72,-678.88C170.06,-664.18 281.75,-625.39 333.27,-607.5"/>
<polygon fill="black" stroke="black" points="334.72,-610.71 343.02,-604.12 332.43,-604.09 334.72,-610.71"/>
</g>
<!-- MAVS_TRADD -->
<g id="node28" class="node">
<title>MAVS_TRADD</title>
<ellipse fill="none" stroke="black" cx="327" cy="-439.75" rx="22.92" ry="22.92"/>
<text text-anchor="middle" x="327" y="-438.55" font-family="Times,serif" font-size="4.00">MAVS_TRADD</text>
</g>
<!-- MAVS_TRADD&#45;&gt;TANK_TRAF3_IKBKE -->
<g id="edge40" class="edge">
<title>MAVS_TRADD&#45;&gt;TANK_TRAF3_IKBKE</title>
<path fill="none" stroke="black" d="M326.54,-416.78C326.32,-406.54 326.06,-394.06 325.81,-382.35"/>
<polygon fill="black" stroke="black" points="329.31,-382.25 325.6,-372.33 322.31,-382.4 329.31,-382.25"/>
</g>
<!-- RIPK1_FADD -->
<g id="node30" class="node">
<title>RIPK1_FADD</title>
<ellipse fill="none" stroke="black" cx="393" cy="-342.99" rx="21.12" ry="21.12"/>
<text text-anchor="middle" x="393" y="-341.79" font-family="Times,serif" font-size="4.00">RIPK1_FADD</text>
</g>
<!-- MAVS_TRADD&#45;&gt;RIPK1_FADD -->
<g id="edge41" class="edge">
<title>MAVS_TRADD&#45;&gt;RIPK1_FADD</title>
<path fill="none" stroke="black" d="M339.73,-420.48C349.9,-405.87 364.28,-385.23 375.53,-369.07"/>
<polygon fill="black" stroke="black" points="378.58,-370.83 381.42,-360.62 372.83,-366.83 378.58,-370.83"/>
</g>
<!-- TICAM1_TRAF3_TRAF6 -->
<g id="node29" class="node">
<title>TICAM1_TRAF3_TRAF6</title>
<ellipse fill="none" stroke="black" cx="399" cy="-439.75" rx="31.44" ry="31.44"/>
<text text-anchor="middle" x="399" y="-438.55" font-family="Times,serif" font-size="4.00">TICAM1_TRAF3_TRAF6</text>
</g>
<!-- TICAM1_TRAF3_TRAF6&#45;&gt;TANK_TRAF3_IKBKE -->
<g id="edge42" class="edge">
<title>TICAM1_TRAF3_TRAF6&#45;&gt;TANK_TRAF3_IKBKE</title>
<path fill="none" stroke="black" d="M379.94,-414.35C370.53,-402.29 359.07,-387.62 349.06,-374.8"/>
<polygon fill="black" stroke="black" points="351.64,-372.41 342.72,-366.69 346.12,-376.72 351.64,-372.41"/>
</g>
<!-- TICAM1_TRAF3_TRAF6&#45;&gt;MAP3K7 -->
<g id="edge43" class="edge">
<title>TICAM1_TRAF3_TRAF6&#45;&gt;MAP3K7</title>
<path fill="none" stroke="black" d="M416.39,-413.02C433.8,-387.49 461.6,-347.41 487,-313.7 497.76,-299.41 510.37,-283.76 520.36,-271.6"/>
<polygon fill="black" stroke="black" points="523.13,-273.73 526.8,-263.79 517.73,-269.28 523.13,-273.73"/>
</g>
<!-- CASP10 -->
<g id="node39" class="node">
<title>CASP10</title>
<ellipse fill="none" stroke="black" cx="446" cy="-249.41" rx="18" ry="18"/>
<text text-anchor="middle" x="446" y="-248.21" font-family="Times,serif" font-size="4.00">CASP10</text>
</g>
<!-- RIPK1_FADD&#45;&gt;CASP10 -->
<g id="edge45" class="edge">
<title>RIPK1_FADD&#45;&gt;CASP10</title>
<path fill="none" stroke="black" d="M403.22,-324.33C411.44,-310.13 423.07,-290.03 432.13,-274.37"/>
<polygon fill="black" stroke="black" points="435.41,-275.7 437.39,-265.29 429.35,-272.19 435.41,-275.7"/>
</g>
<!-- CASP8 -->
<g id="node50" class="node">
<title>CASP8</title>
<ellipse fill="none" stroke="black" cx="392" cy="-249.41" rx="18" ry="18"/>
<text text-anchor="middle" x="392" y="-248.21" font-family="Times,serif" font-size="4.00">CASP8</text>
</g>
<!-- RIPK1_FADD&#45;&gt;CASP8 -->
<g id="edge44" class="edge">
<title>RIPK1_FADD&#45;&gt;CASP8</title>
<path fill="none" stroke="black" d="M392.78,-321.67C392.64,-308.73 392.45,-291.83 392.3,-277.73"/>
<polygon fill="black" stroke="black" points="395.8,-277.57 392.19,-267.6 388.8,-277.64 395.8,-277.57"/>
</g>
<!-- TICAM1 -->
<g id="node31" class="node">
<title>TICAM1</title>
<ellipse fill="none" stroke="black" cx="468" cy="-525.22" rx="18" ry="18"/>
<text text-anchor="middle" x="468" y="-524.02" font-family="Times,serif" font-size="4.00">TICAM1</text>
</g>
<!-- TICAM1&#45;&gt;TICAM1_TRAF3_TRAF6 -->
<g id="edge46" class="edge">
<title>TICAM1&#45;&gt;TICAM1_TRAF3_TRAF6</title>
<path fill="none" stroke="black" d="M456.91,-510.81C448.4,-500.51 436.27,-485.84 425.32,-472.59"/>
<polygon fill="black" stroke="black" points="427.76,-470.05 418.69,-464.57 422.36,-474.51 427.76,-470.05"/>
</g>
<!-- dsRNA -->
<g id="node32" class="node">
<title>dsRNA</title>
<ellipse fill="none" stroke="black" cx="468" cy="-685.69" rx="18" ry="18"/>
<text text-anchor="middle" x="468" y="-684.49" font-family="Times,serif" font-size="4.00">dsRNA</text>
</g>
<!-- dsRNA&#45;&gt;DDX58 -->
<g id="edge50" class="edge">
<title>dsRNA&#45;&gt;DDX58</title>
<path fill="none" stroke="black" d="M458.12,-670.49C453.35,-664.2 447.31,-656.93 441,-651.22 436.02,-646.71 405.64,-627.15 383.54,-613.1"/>
<polygon fill="black" stroke="black" points="385.29,-610.06 374.97,-607.66 381.54,-615.97 385.29,-610.06"/>
</g>
<!-- dsRNA&#45;&gt;IFIH1 -->
<g id="edge48" class="edge">
<title>dsRNA&#45;&gt;IFIH1</title>
<path fill="none" stroke="black" d="M458.84,-670.02C450.54,-656.73 438.17,-636.92 428.52,-621.47"/>
<polygon fill="black" stroke="black" points="431.47,-619.59 423.21,-612.96 425.53,-623.3 431.47,-619.59"/>
</g>
<!-- EIF2AK2 -->
<g id="node33" class="node">
<title>EIF2AK2</title>
<ellipse fill="none" stroke="black" cx="468" cy="-597.22" rx="18" ry="18"/>
<text text-anchor="middle" x="468" y="-596.02" font-family="Times,serif" font-size="4.00">EIF2AK2</text>
</g>
<!-- dsRNA&#45;&gt;EIF2AK2 -->
<g id="edge47" class="edge">
<title>dsRNA&#45;&gt;EIF2AK2</title>
<path fill="none" stroke="black" d="M468,-667.61C468,-655.64 468,-639.41 468,-625.65"/>
<polygon fill="black" stroke="black" points="471.5,-625.27 468,-615.27 464.5,-625.27 471.5,-625.27"/>
</g>
<!-- TLR3 -->
<g id="node43" class="node">
<title>TLR3</title>
<ellipse fill="none" stroke="black" cx="522" cy="-597.22" rx="18" ry="18"/>
<text text-anchor="middle" x="522" y="-596.02" font-family="Times,serif" font-size="4.00">TLR3</text>
</g>
<!-- dsRNA&#45;&gt;TLR3 -->
<g id="edge49" class="edge">
<title>dsRNA&#45;&gt;TLR3</title>
<path fill="none" stroke="black" d="M477.16,-670.02C485.46,-656.73 497.83,-636.92 507.48,-621.47"/>
<polygon fill="black" stroke="black" points="510.47,-623.3 512.79,-612.96 504.53,-619.59 510.47,-623.3"/>
</g>
<!-- EIF2AK2&#45;&gt;MAP2K6 -->
<g id="edge51" class="edge">
<title>EIF2AK2&#45;&gt;MAP2K6</title>
<path fill="none" stroke="black" d="M482.49,-586.21C486.44,-583.73 490.79,-581.21 495,-579.22 540.74,-557.59 569.78,-581.39 603,-543.22 633.41,-508.29 622,-487.07 622,-440.75 622,-440.75 622,-440.75 622,-341.99 622,-280.9 580.44,-218.46 555.79,-186.8"/>
<polygon fill="black" stroke="black" points="558.3,-184.34 549.33,-178.71 552.83,-188.71 558.3,-184.34"/>
</g>
<!-- Orf9 -->
<g id="node34" class="node">
<title>Orf9</title>
<ellipse fill="none" stroke="black" cx="576" cy="-685.69" rx="18" ry="18"/>
<text text-anchor="middle" x="576" y="-684.49" font-family="Times,serif" font-size="4.00">Orf9</text>
</g>
<!-- ITCH -->
<g id="node35" class="node">
<title>ITCH</title>
<ellipse fill="none" stroke="black" cx="576" cy="-597.22" rx="18" ry="18"/>
<text text-anchor="middle" x="576" y="-596.02" font-family="Times,serif" font-size="4.00">ITCH</text>
</g>
<!-- Orf9&#45;&gt;ITCH -->
<g id="edge52" class="edge">
<title>Orf9&#45;&gt;ITCH</title>
<path fill="none" stroke="black" d="M576,-667.61C576,-655.64 576,-639.41 576,-625.65"/>
<polygon fill="black" stroke="black" points="579.5,-625.27 576,-615.27 572.5,-625.27 579.5,-625.27"/>
</g>
<!-- Nsp15 -->
<g id="node36" class="node">
<title>Nsp15</title>
<ellipse fill="none" stroke="black" cx="414" cy="-685.69" rx="18" ry="18"/>
<text text-anchor="middle" x="414" y="-684.49" font-family="Times,serif" font-size="4.00">Nsp15</text>
</g>
<!-- Nsp15&#45;&gt;DDX58 -->
<g id="edge55" class="edge">
<title>Nsp15&#45;&gt;DDX58</title>
<path fill="none" stroke="black" d="M404.84,-670.02C396.54,-656.73 384.17,-636.92 374.52,-621.47"/>
<polygon fill="black" stroke="black" points="377.47,-619.59 369.21,-612.96 371.53,-623.3 377.47,-619.59"/>
</g>
<!-- Nsp15&#45;&gt;IFIH1 -->
<g id="edge53" class="edge">
<title>Nsp15&#45;&gt;IFIH1</title>
<path fill="none" stroke="black" d="M414,-667.61C414,-655.64 414,-639.41 414,-625.65"/>
<polygon fill="black" stroke="black" points="417.5,-625.27 414,-615.27 410.5,-625.27 417.5,-625.27"/>
</g>
<!-- Nsp15&#45;&gt;EIF2AK2 -->
<g id="edge54" class="edge">
<title>Nsp15&#45;&gt;EIF2AK2</title>
<path fill="none" stroke="black" d="M423.16,-670.02C431.46,-656.73 443.83,-636.92 453.48,-621.47"/>
<polygon fill="black" stroke="black" points="456.47,-623.3 458.79,-612.96 450.53,-619.59 456.47,-623.3"/>
</g>
<!-- MAVS_TRAF&#45;&gt;TRAF6 -->
<g id="edge56" class="edge">
<title>MAVS_TRAF&#45;&gt;TRAF6</title>
<path fill="none" stroke="black" d="M508.45,-419.58C507.07,-405.43 506.88,-386 507.88,-370.39"/>
<polygon fill="black" stroke="black" points="511.37,-370.57 508.76,-360.3 504.4,-369.96 511.37,-370.57"/>
</g>
<!-- MAVS&#45;&gt;MAVS_TRADD -->
<g id="edge58" class="edge">
<title>MAVS&#45;&gt;MAVS_TRADD</title>
<path fill="none" stroke="black" d="M401.16,-511.91C387.92,-499.2 366.97,-479.1 350.7,-463.5"/>
<polygon fill="black" stroke="black" points="352.79,-460.65 343.15,-456.25 347.94,-465.7 352.79,-460.65"/>
</g>
<!-- MAVS&#45;&gt;MAVS_TRAF -->
<g id="edge57" class="edge">
<title>MAVS&#45;&gt;MAVS_TRAF</title>
<path fill="none" stroke="black" d="M427.49,-512.97C443.63,-499.49 470.93,-476.71 490.55,-460.33"/>
<polygon fill="black" stroke="black" points="493,-462.84 498.43,-453.75 488.51,-457.47 493,-462.84"/>
</g>
<!-- CASP10&#45;&gt;IKK Complex -->
<g id="edge59" class="edge">
<title>CASP10&#45;&gt;IKK Complex</title>
<path fill="none" stroke="black" d="M438.87,-232.44C433.91,-221.35 427.18,-206.28 421.37,-193.26"/>
<polygon fill="black" stroke="black" points="424.42,-191.5 417.14,-183.8 418.02,-194.35 424.42,-191.5"/>
</g>
<!-- IRAK4 -->
<g id="node40" class="node">
<title>IRAK4</title>
<ellipse fill="none" stroke="black" cx="154" cy="-342.99" rx="18" ry="18"/>
<text text-anchor="middle" x="154" y="-341.79" font-family="Times,serif" font-size="4.00">IRAK4</text>
</g>
<!-- IRAK4&#45;&gt;MYD88_IRAK_TRAF -->
<g id="edge60" class="edge">
<title>IRAK4&#45;&gt;MYD88_IRAK_TRAF</title>
<path fill="none" stroke="black" d="M142.54,-328.87C131.25,-315.95 113.64,-295.79 99.09,-279.14"/>
<polygon fill="black" stroke="black" points="101.46,-276.52 92.24,-271.29 96.18,-281.13 101.46,-276.52"/>
</g>
<!-- IKK Complex&#45;&gt;NFKBIA -->
<g id="edge61" class="edge">
<title>IKK Complex&#45;&gt;NFKBIA</title>
<path fill="none" stroke="black" d="M392.82,-151.58C376.56,-139.54 351.38,-120.9 333.25,-107.47"/>
<polygon fill="black" stroke="black" points="335.1,-104.49 324.98,-101.35 330.94,-110.12 335.1,-104.49"/>
</g>
<!-- TRADD -->
<g id="node42" class="node">
<title>TRADD</title>
<ellipse fill="none" stroke="black" cx="322" cy="-525.22" rx="18" ry="18"/>
<text text-anchor="middle" x="322" y="-524.02" font-family="Times,serif" font-size="4.00">TRADD</text>
</g>
<!-- TRADD&#45;&gt;MAVS_TRADD -->
<g id="edge62" class="edge">
<title>TRADD&#45;&gt;MAVS_TRADD</title>
<path fill="none" stroke="black" d="M323.04,-506.93C323.63,-497.06 324.39,-484.37 325.08,-472.75"/>
<polygon fill="black" stroke="black" points="328.59,-472.68 325.7,-462.49 321.61,-472.26 328.59,-472.68"/>
</g>
<!-- TLR3&#45;&gt;TICAM1 -->
<g id="edge63" class="edge">
<title>TLR3&#45;&gt;TICAM1</title>
<path fill="none" stroke="black" d="M511.33,-582.39C503.79,-572.61 493.52,-559.3 484.87,-548.09"/>
<polygon fill="black" stroke="black" points="487.53,-545.8 478.65,-540.02 481.98,-550.08 487.53,-545.8"/>
</g>
<!-- IRAK1 -->
<g id="node44" class="node">
<title>IRAK1</title>
<ellipse fill="none" stroke="black" cx="100" cy="-342.99" rx="18" ry="18"/>
<text text-anchor="middle" x="100" y="-341.79" font-family="Times,serif" font-size="4.00">IRAK1</text>
</g>
<!-- IRAK1&#45;&gt;MYD88_IRAK_TRAF -->
<g id="edge64" class="edge">
<title>IRAK1&#45;&gt;MYD88_IRAK_TRAF</title>
<path fill="none" stroke="black" d="M95.23,-325.2C92.17,-314.41 88.08,-299.99 84.3,-286.69"/>
<polygon fill="black" stroke="black" points="87.59,-285.48 81.5,-276.81 80.86,-287.39 87.59,-285.48"/>
</g>
<!-- TRAF2 -->
<g id="node45" class="node">
<title>TRAF2</title>
<ellipse fill="none" stroke="black" cx="522" cy="-525.22" rx="18" ry="18"/>
<text text-anchor="middle" x="522" y="-524.02" font-family="Times,serif" font-size="4.00">TRAF2</text>
</g>
<!-- TRAF2&#45;&gt;MAVS_TRAF -->
<g id="edge65" class="edge">
<title>TRAF2&#45;&gt;MAVS_TRAF</title>
<path fill="none" stroke="black" d="M520.34,-506.93C519.34,-496.51 518.05,-482.96 516.88,-470.84"/>
<polygon fill="black" stroke="black" points="520.35,-470.29 515.91,-460.67 513.38,-470.95 520.35,-470.29"/>
</g>
<!-- TRAF5 -->
<g id="node47" class="node">
<title>TRAF5</title>
<ellipse fill="none" stroke="black" cx="576" cy="-525.22" rx="18" ry="18"/>
<text text-anchor="middle" x="576" y="-524.02" font-family="Times,serif" font-size="4.00">TRAF5</text>
</g>
<!-- TRAF5&#45;&gt;MAVS_TRAF -->
<g id="edge66" class="edge">
<title>TRAF5&#45;&gt;MAVS_TRAF</title>
<path fill="none" stroke="black" d="M565.48,-510.06C556.36,-497.78 542.94,-479.72 532.1,-465.12"/>
<polygon fill="black" stroke="black" points="534.83,-462.93 526.06,-456.99 529.21,-467.1 534.83,-462.93"/>
</g>
<!-- ubiquitin&#45;proteasome complex -->
<g id="node48" class="node">
<title>ubiquitin&#45;proteasome complex</title>
<ellipse fill="none" stroke="black" cx="646" cy="-685.69" rx="34.43" ry="34.43"/>
<text text-anchor="middle" x="646" y="-684.49" font-family="Times,serif" font-size="4.00">ubiquitin&#45;proteasome complex</text>
</g>
<!-- MYD88_IRAK_TRAF&#45;&gt;IRF7 -->
<g id="edge67" class="edge">
<title>MYD88_IRAK_TRAF&#45;&gt;IRF7</title>
<path fill="none" stroke="black" d="M83.95,-222.65C87.8,-212.68 92.2,-201.28 96.06,-191.31"/>
<polygon fill="black" stroke="black" points="99.35,-192.5 99.68,-181.91 92.82,-189.98 99.35,-192.5"/>
</g>
<!-- CASP8&#45;&gt;IKK Complex -->
<g id="edge68" class="edge">
<title>CASP8&#45;&gt;IKK Complex</title>
<path fill="none" stroke="black" d="M395.44,-231.65C397.61,-221.08 400.47,-207.15 403,-194.81"/>
<polygon fill="black" stroke="black" points="406.45,-195.42 405.03,-184.92 399.59,-194.01 406.45,-195.42"/>
</g>
</g>
</svg>
